G75*
%MOIN*%
%OFA0B0*%
%FSLAX24Y24*%
%IPPOS*%
%LPD*%
%AMOC8*
5,1,8,0,0,1.08239X$1,22.5*
%
%ADD10C,0.0030*%
%ADD11C,0.0080*%
%ADD12C,0.0060*%
%ADD13R,0.0008X0.0048*%
%ADD14R,0.0008X0.0080*%
%ADD15R,0.0008X0.0104*%
%ADD16R,0.0008X0.0104*%
%ADD17R,0.0008X0.0120*%
%ADD18R,0.0008X0.0136*%
%ADD19R,0.0008X0.0144*%
%ADD20R,0.0008X0.0160*%
%ADD21R,0.0008X0.0176*%
%ADD22R,0.0008X0.0184*%
%ADD23R,0.0008X0.0192*%
%ADD24R,0.0008X0.0200*%
%ADD25R,0.0008X0.0208*%
%ADD26R,0.0008X0.0216*%
%ADD27R,0.0008X0.0224*%
%ADD28R,0.0008X0.0232*%
%ADD29R,0.0008X0.0240*%
%ADD30R,0.0008X0.0224*%
%ADD31R,0.0008X0.0232*%
%ADD32R,0.0008X0.0248*%
%ADD33R,0.0008X0.0256*%
%ADD34R,0.0008X0.0264*%
%ADD35R,0.0008X0.0272*%
%ADD36R,0.0008X0.0264*%
%ADD37R,0.0008X0.0280*%
%ADD38R,0.0008X0.0272*%
%ADD39R,0.0008X0.0288*%
%ADD40R,0.0008X0.0296*%
%ADD41R,0.0008X0.0304*%
%ADD42R,0.0008X0.0312*%
%ADD43R,0.0008X0.0304*%
%ADD44R,0.0008X0.0320*%
%ADD45R,0.0008X0.0328*%
%ADD46R,0.0008X0.0336*%
%ADD47R,0.0008X0.0344*%
%ADD48R,0.0008X0.0008*%
%ADD49R,0.0008X0.0016*%
%ADD50R,0.0008X0.0112*%
%ADD51R,0.0008X0.0152*%
%ADD52R,0.0008X0.0192*%
%ADD53R,0.0008X0.0184*%
%ADD54R,0.0008X0.0672*%
%ADD55R,0.0008X0.0152*%
%ADD56R,0.0008X0.0088*%
%ADD57R,0.0008X0.0168*%
%ADD58R,0.0008X0.0096*%
%ADD59R,0.0008X0.0352*%
%ADD60R,0.0008X0.0400*%
%ADD61R,0.0008X0.0384*%
%ADD62R,0.0008X0.0432*%
%ADD63R,0.0008X0.0424*%
%ADD64R,0.0008X0.0456*%
%ADD65R,0.0008X0.0464*%
%ADD66R,0.0008X0.0464*%
%ADD67R,0.0008X0.0472*%
%ADD68R,0.0008X0.0720*%
%ADD69R,0.0008X0.0472*%
%ADD70R,0.0008X0.0480*%
%ADD71R,0.0008X0.0712*%
%ADD72R,0.0008X0.0488*%
%ADD73R,0.0008X0.0696*%
%ADD74R,0.0008X0.0680*%
%ADD75R,0.0008X0.0664*%
%ADD76R,0.0008X0.0144*%
%ADD77R,0.0008X0.0496*%
%ADD78R,0.0008X0.0448*%
%ADD79R,0.0008X0.0440*%
%ADD80R,0.0008X0.0408*%
%ADD81R,0.0008X0.0368*%
%ADD82R,0.0008X0.0360*%
%ADD83R,0.0008X0.0312*%
%ADD84R,0.0008X0.0344*%
%ADD85R,0.0008X0.0352*%
%ADD86R,0.0008X0.0376*%
%ADD87R,0.0008X0.0392*%
%ADD88R,0.0008X0.0384*%
%ADD89R,0.0008X0.0416*%
%ADD90R,0.0008X0.0432*%
%ADD91R,0.0008X0.0424*%
%ADD92R,0.0008X0.0520*%
%ADD93R,0.0008X0.0512*%
%ADD94R,0.0008X0.0552*%
%ADD95R,0.0008X0.0544*%
%ADD96R,0.0008X0.0584*%
%ADD97R,0.0008X0.0576*%
%ADD98R,0.0008X0.0640*%
%ADD99R,0.0008X0.0632*%
%ADD100R,0.0008X0.0656*%
%ADD101R,0.0008X0.0664*%
%ADD102R,0.0008X0.0672*%
%ADD103R,0.0008X0.0688*%
%ADD104R,0.0008X0.0648*%
%ADD105R,0.0008X0.0632*%
%ADD106R,0.0008X0.0624*%
%ADD107R,0.0008X0.0616*%
%ADD108R,0.0008X0.0608*%
%ADD109R,0.0008X0.0072*%
%ADD110R,0.0008X0.0032*%
D10*
X006678Y001535D02*
X006678Y001632D01*
X006726Y001680D01*
X006726Y001781D02*
X006678Y001829D01*
X006678Y001926D01*
X006726Y001975D01*
X006823Y002076D02*
X006823Y002269D01*
X006823Y002370D02*
X006823Y002515D01*
X006775Y002564D01*
X006726Y002564D01*
X006678Y002515D01*
X006678Y002370D01*
X006968Y002370D01*
X006968Y002515D01*
X006920Y002564D01*
X006871Y002564D01*
X006823Y002515D01*
X006920Y002665D02*
X006823Y002762D01*
X006678Y002762D01*
X006823Y002762D02*
X006920Y002858D01*
X006968Y002858D01*
X006823Y002960D02*
X006823Y003153D01*
X006871Y003254D02*
X006823Y003303D01*
X006823Y003399D01*
X006775Y003448D01*
X006726Y003448D01*
X006678Y003399D01*
X006678Y003303D01*
X006726Y003254D01*
X006871Y003254D02*
X006920Y003254D01*
X006968Y003303D01*
X006968Y003399D01*
X006920Y003448D01*
X006871Y003549D02*
X006968Y003646D01*
X006871Y003742D01*
X006678Y003742D01*
X006823Y003742D02*
X006823Y003549D01*
X006871Y003549D02*
X006678Y003549D01*
X006920Y002665D02*
X006968Y002665D01*
X006920Y001975D02*
X006968Y001926D01*
X006968Y001829D01*
X006920Y001781D01*
X006726Y001781D01*
X006920Y001680D02*
X006968Y001632D01*
X006968Y001535D01*
X006920Y001486D01*
X006726Y001486D01*
X006678Y001535D01*
X008790Y001551D02*
X008790Y001613D01*
X008852Y001675D01*
X009161Y001675D01*
X009161Y001490D01*
X009099Y001428D01*
X008976Y001428D01*
X008914Y001490D01*
X008914Y001675D01*
X008976Y001796D02*
X009099Y001796D01*
X009161Y001858D01*
X009161Y002043D01*
X009284Y002043D02*
X008914Y002043D01*
X008914Y001858D01*
X008976Y001796D01*
X008914Y002165D02*
X009284Y002411D01*
X009284Y002533D02*
X009161Y002656D01*
X009284Y002780D01*
X008914Y002780D01*
X009284Y002901D02*
X009284Y003148D01*
X009284Y003270D02*
X009284Y003455D01*
X009222Y003516D01*
X009099Y003516D01*
X009037Y003455D01*
X009037Y003270D01*
X008914Y003270D02*
X009284Y003270D01*
X009284Y003025D02*
X008914Y003025D01*
X008914Y002533D02*
X009284Y002533D01*
X009161Y003638D02*
X008914Y003638D01*
X008914Y003761D02*
X009099Y003761D01*
X009161Y003823D01*
X009099Y003885D01*
X008914Y003885D01*
X008914Y004006D02*
X008914Y004130D01*
X008914Y004068D02*
X009284Y004068D01*
X009284Y004006D02*
X009284Y004130D01*
X009284Y004252D02*
X008976Y004252D01*
X008914Y004313D01*
X008914Y004437D01*
X008976Y004499D01*
X009284Y004499D01*
X009099Y003761D02*
X009161Y003700D01*
X009161Y003638D01*
X008976Y001306D02*
X008914Y001306D01*
X008914Y001244D01*
X008976Y001244D01*
X008976Y001306D01*
X008976Y001122D02*
X009037Y001061D01*
X009037Y000937D01*
X009099Y000876D01*
X009161Y000937D01*
X009161Y001122D01*
X008976Y001122D02*
X008914Y001061D01*
X008914Y000876D01*
X008914Y000753D02*
X008914Y000630D01*
X008914Y000692D02*
X009161Y000692D01*
X009161Y000630D01*
X009284Y000692D02*
X009346Y000692D01*
D11*
X002013Y001360D02*
X002013Y003940D01*
X003313Y003940D01*
X003313Y001360D01*
X002013Y001360D01*
D12*
X005563Y001900D02*
X005813Y001650D01*
X006313Y001650D01*
X006563Y001900D01*
X006563Y002400D01*
X006313Y002650D01*
X006563Y002900D01*
X006563Y003400D01*
X006313Y003650D01*
X005813Y003650D01*
X005563Y003400D01*
X005563Y002900D01*
X005813Y002650D01*
X005563Y002400D01*
X005563Y001900D01*
X005813Y002650D02*
X006313Y002650D01*
X009563Y002400D02*
X009563Y001900D01*
X009813Y001650D01*
X010313Y001650D01*
X010563Y001900D01*
X010563Y002400D01*
X010313Y002650D01*
X010563Y002900D01*
X010563Y003400D01*
X010313Y003650D01*
X009813Y003650D01*
X009563Y003400D01*
X009563Y002900D01*
X009813Y002650D01*
X009563Y002400D01*
X009813Y002650D02*
X010313Y002650D01*
D13*
X007067Y003138D03*
X007067Y002074D03*
D14*
X007075Y002074D03*
X007075Y003138D03*
D15*
X007411Y002766D03*
X007547Y002598D03*
X007555Y002598D03*
X007611Y002598D03*
X007619Y002598D03*
X007795Y002766D03*
X007083Y002078D03*
D16*
X007083Y003134D03*
D17*
X007091Y003134D03*
X007539Y002598D03*
X007627Y002598D03*
X007091Y002078D03*
X008507Y002078D03*
X008507Y003134D03*
D18*
X008499Y003134D03*
X007635Y002598D03*
X007531Y002598D03*
X007099Y002078D03*
X008499Y002078D03*
D19*
X007099Y003130D03*
D20*
X007107Y003130D03*
X007643Y002602D03*
X007427Y002434D03*
X007107Y002082D03*
X008491Y003130D03*
D21*
X008483Y003130D03*
X007587Y002874D03*
X007579Y002874D03*
X007787Y002434D03*
X007595Y002322D03*
X007587Y002322D03*
X007579Y002322D03*
X007563Y002330D03*
X007555Y002330D03*
X007547Y002330D03*
X007539Y002338D03*
X007115Y002082D03*
X008483Y002082D03*
D22*
X007619Y002326D03*
X007611Y002326D03*
X007603Y002326D03*
X007531Y002342D03*
X007523Y002350D03*
X007427Y002766D03*
X007539Y002862D03*
X007555Y002870D03*
X007563Y002870D03*
X007571Y002870D03*
X007595Y002870D03*
X007611Y002870D03*
X007779Y002766D03*
X007115Y003126D03*
D23*
X007547Y002866D03*
X007619Y002866D03*
X007627Y002866D03*
X007459Y002082D03*
X007123Y002082D03*
X008475Y002082D03*
D24*
X007635Y002334D03*
X007651Y002598D03*
X007515Y002598D03*
X007523Y002846D03*
X007123Y003126D03*
X007435Y003142D03*
X007499Y003142D03*
X007507Y003142D03*
X008475Y003126D03*
X007483Y002078D03*
X007475Y002078D03*
X007467Y002078D03*
X007451Y002078D03*
X007443Y002078D03*
D25*
X007435Y002074D03*
X007491Y002074D03*
X007499Y002074D03*
X007507Y002074D03*
X007131Y002082D03*
X007515Y002362D03*
X007779Y002434D03*
X007203Y002570D03*
X007635Y002858D03*
X007523Y003146D03*
X007515Y003146D03*
X007427Y003146D03*
X007419Y003146D03*
X008435Y002762D03*
X008443Y002746D03*
D26*
X008443Y002470D03*
X007771Y002766D03*
X007643Y002854D03*
X007515Y002838D03*
X007435Y002766D03*
X007211Y002574D03*
X007643Y002342D03*
X007523Y002070D03*
X007515Y002070D03*
X007427Y002070D03*
X007419Y002070D03*
X008467Y002086D03*
X008467Y003126D03*
X007547Y003150D03*
X007539Y003150D03*
X007531Y003150D03*
X007411Y003150D03*
X007131Y003126D03*
D27*
X007219Y002570D03*
X007139Y002082D03*
X007411Y002066D03*
X007531Y002066D03*
X007539Y002066D03*
X008435Y002450D03*
X008427Y002778D03*
D28*
X007763Y002766D03*
X007443Y002766D03*
X007139Y003126D03*
X007155Y003142D03*
X008459Y002086D03*
X007563Y002062D03*
X007555Y002062D03*
X007547Y002062D03*
X007403Y002062D03*
X007395Y002062D03*
D29*
X007387Y002058D03*
X007571Y002058D03*
X007579Y002058D03*
X007171Y002058D03*
X007163Y002066D03*
X007155Y002074D03*
X007147Y002082D03*
X007451Y002434D03*
X007235Y002570D03*
X007651Y002842D03*
X007595Y003162D03*
X007379Y003162D03*
X007371Y003162D03*
X007179Y003162D03*
X007147Y003130D03*
X008459Y003122D03*
X008419Y002426D03*
D30*
X007651Y002354D03*
X007443Y002434D03*
X007403Y003154D03*
X007395Y003154D03*
X007555Y003154D03*
X007563Y003154D03*
X007163Y003154D03*
D31*
X007171Y003158D03*
X007387Y003158D03*
X007571Y003158D03*
X007579Y003158D03*
X007587Y003158D03*
X008419Y002790D03*
X008427Y002438D03*
X007771Y002430D03*
X007227Y002574D03*
D32*
X007451Y002766D03*
X007755Y002766D03*
X008411Y002806D03*
X008707Y002606D03*
X007763Y002430D03*
X007595Y002054D03*
X007587Y002054D03*
X007379Y002054D03*
X007179Y002054D03*
X007187Y003166D03*
X007363Y003166D03*
D33*
X007355Y003170D03*
X007347Y003170D03*
X007195Y003170D03*
X007243Y002570D03*
X007459Y002434D03*
X007371Y002050D03*
X007363Y002050D03*
X007187Y002050D03*
X008451Y002090D03*
X008451Y003122D03*
D34*
X007603Y002046D03*
X007355Y002046D03*
X007195Y002046D03*
D35*
X007203Y002042D03*
X007339Y002042D03*
X007347Y002042D03*
X008443Y003122D03*
D36*
X007603Y003174D03*
X007339Y003174D03*
X007203Y003174D03*
X007251Y002574D03*
D37*
X007267Y002574D03*
X007459Y002766D03*
X007747Y002766D03*
X008019Y003126D03*
X008027Y003126D03*
X008035Y003118D03*
X008043Y003118D03*
X008051Y003110D03*
X007995Y003142D03*
X007323Y003182D03*
X007315Y003182D03*
X007219Y003182D03*
X008699Y002606D03*
X008003Y002078D03*
X007331Y002038D03*
X007211Y002038D03*
D38*
X007467Y002434D03*
X007259Y002570D03*
X007755Y002434D03*
X008443Y002090D03*
X008011Y003130D03*
X008003Y003138D03*
X007331Y003178D03*
X007211Y003178D03*
D39*
X007227Y003186D03*
X007299Y003186D03*
X007307Y003186D03*
X008059Y003106D03*
X008067Y003098D03*
X008075Y003098D03*
X007467Y002770D03*
X007275Y002570D03*
X007475Y002434D03*
X007747Y002434D03*
X007995Y002074D03*
X008011Y002082D03*
X008019Y002090D03*
X008027Y002090D03*
X008035Y002098D03*
X008043Y002098D03*
X008051Y002106D03*
X007323Y002034D03*
X007315Y002034D03*
X007219Y002034D03*
D40*
X007227Y002030D03*
X007235Y002030D03*
X007299Y002030D03*
X007307Y002030D03*
X008059Y002110D03*
X008075Y002118D03*
X008435Y002094D03*
X008691Y002606D03*
X008435Y003118D03*
X008091Y003086D03*
X008083Y003094D03*
X007739Y002766D03*
X007731Y002766D03*
X007475Y002766D03*
X007283Y002574D03*
X007283Y003190D03*
X007291Y003190D03*
X007251Y003190D03*
X007243Y003190D03*
X007235Y003190D03*
D41*
X008099Y003082D03*
X007291Y002570D03*
X008083Y002122D03*
X008091Y002130D03*
X007611Y002026D03*
X007291Y002026D03*
X007283Y002026D03*
X007251Y002026D03*
X007243Y002026D03*
D42*
X007259Y002022D03*
X007267Y002022D03*
X007275Y002022D03*
X008107Y002142D03*
X008675Y002606D03*
X008683Y002606D03*
X007723Y002766D03*
X007483Y002766D03*
D43*
X008107Y003074D03*
X007611Y003194D03*
X007275Y003194D03*
X007267Y003194D03*
X007259Y003194D03*
X007483Y002434D03*
X007739Y002434D03*
X008067Y002114D03*
D44*
X008115Y002146D03*
X007731Y002434D03*
X007723Y002434D03*
X007491Y002434D03*
X007299Y002570D03*
X008123Y003066D03*
X008131Y003058D03*
X007987Y003170D03*
D45*
X007491Y002766D03*
X007307Y002574D03*
X008123Y002150D03*
X007987Y002046D03*
X008643Y002606D03*
X008651Y002606D03*
X008659Y002606D03*
X008667Y002606D03*
D46*
X008635Y002602D03*
X008139Y003058D03*
X008419Y003114D03*
X007315Y002570D03*
X008131Y002154D03*
X008419Y002098D03*
D47*
X007331Y002574D03*
X007323Y002574D03*
X007619Y003214D03*
D48*
X007403Y002766D03*
D49*
X007803Y002770D03*
X007411Y002434D03*
D50*
X007419Y002434D03*
D51*
X007419Y002766D03*
X007787Y002766D03*
D52*
X007603Y002874D03*
X007531Y002858D03*
X007491Y003138D03*
X007483Y003138D03*
X007475Y003138D03*
X007451Y003138D03*
X007443Y003138D03*
X007435Y002434D03*
X007627Y002330D03*
D53*
X007467Y003134D03*
X007459Y003134D03*
D54*
X008299Y003002D03*
X007507Y002602D03*
X007499Y002602D03*
X008251Y002242D03*
X008323Y002202D03*
D55*
X008491Y002078D03*
X007523Y002598D03*
D56*
X007563Y002598D03*
X007571Y002598D03*
X007579Y002598D03*
X007587Y002598D03*
X007595Y002598D03*
D57*
X007571Y002326D03*
D58*
X007803Y002434D03*
X007603Y002594D03*
X008515Y002074D03*
X008515Y003138D03*
D59*
X007619Y002002D03*
D60*
X007627Y001978D03*
X007971Y003210D03*
D61*
X007627Y003234D03*
D62*
X007635Y001962D03*
D63*
X007635Y003254D03*
D64*
X007643Y003270D03*
X007643Y001950D03*
D65*
X007651Y001946D03*
X007955Y003250D03*
D66*
X007651Y003274D03*
X008195Y003034D03*
D67*
X008195Y002182D03*
X007955Y001966D03*
X007659Y001942D03*
D68*
X007659Y002602D03*
D69*
X007659Y003278D03*
X007667Y003278D03*
X007675Y003278D03*
X007683Y003278D03*
X007691Y003278D03*
X007699Y003278D03*
X007707Y003278D03*
X007715Y003278D03*
X007723Y003278D03*
X007731Y003278D03*
X007739Y003278D03*
X007747Y003278D03*
X007755Y003278D03*
X007763Y003278D03*
X007771Y003278D03*
X007779Y003278D03*
X007787Y003278D03*
X007795Y003278D03*
X007803Y003278D03*
X007811Y003278D03*
X007819Y003278D03*
X007827Y003278D03*
X007835Y003278D03*
X007843Y003278D03*
X007851Y003278D03*
X007859Y003278D03*
X007867Y003278D03*
X007875Y003278D03*
X007883Y003278D03*
D70*
X007891Y003274D03*
X007899Y003274D03*
X007907Y003274D03*
X007915Y003274D03*
X007923Y003274D03*
X007939Y003266D03*
X007947Y003258D03*
X007675Y001938D03*
X007667Y001938D03*
D71*
X007667Y002598D03*
X007675Y002598D03*
D72*
X008203Y003030D03*
X007931Y003270D03*
X007947Y001958D03*
X007939Y001950D03*
X007923Y001942D03*
X007883Y001934D03*
X007875Y001934D03*
X007867Y001934D03*
X007859Y001934D03*
X007851Y001934D03*
X007843Y001934D03*
X007835Y001934D03*
X007827Y001934D03*
X007819Y001934D03*
X007811Y001934D03*
X007803Y001934D03*
X007795Y001934D03*
X007787Y001934D03*
X007779Y001934D03*
X007771Y001934D03*
X007763Y001934D03*
X007755Y001934D03*
X007747Y001934D03*
X007739Y001934D03*
X007731Y001934D03*
X007723Y001934D03*
X007715Y001934D03*
X007707Y001934D03*
X007699Y001934D03*
X007691Y001934D03*
X007683Y001934D03*
D73*
X008283Y002230D03*
X007691Y002598D03*
X007683Y002598D03*
D74*
X007699Y002598D03*
X007707Y002598D03*
X008259Y002238D03*
X008267Y002238D03*
X008291Y002222D03*
X008299Y002214D03*
X008275Y002982D03*
D75*
X008307Y003006D03*
X007715Y002598D03*
X008243Y002246D03*
X008315Y002206D03*
X008331Y002198D03*
D76*
X007795Y002434D03*
D77*
X008203Y002186D03*
X007931Y001946D03*
X007915Y001938D03*
X007907Y001938D03*
X007899Y001938D03*
X007891Y001938D03*
D78*
X007963Y001978D03*
X008187Y002178D03*
X008451Y002602D03*
D79*
X008187Y003038D03*
X007963Y003238D03*
D80*
X008171Y003046D03*
X008459Y002606D03*
X007971Y002006D03*
D81*
X007979Y002026D03*
X008547Y002602D03*
D82*
X008555Y002606D03*
X008563Y002606D03*
X008571Y002606D03*
X008579Y002606D03*
X008587Y002606D03*
X008147Y002158D03*
X007979Y003190D03*
D83*
X008115Y003070D03*
X008427Y003118D03*
X008099Y002134D03*
X008427Y002094D03*
D84*
X008139Y002158D03*
X008595Y002606D03*
X008603Y002606D03*
X008611Y002606D03*
X008619Y002606D03*
X008627Y002606D03*
D85*
X008147Y003058D03*
X008411Y003114D03*
D86*
X008155Y003054D03*
X008507Y002606D03*
X008515Y002606D03*
X008523Y002606D03*
X008531Y002606D03*
X008539Y002606D03*
X008155Y002166D03*
D87*
X008163Y002166D03*
X008467Y002606D03*
X008475Y002606D03*
X008483Y002606D03*
X008491Y002606D03*
X008499Y002606D03*
D88*
X008163Y003050D03*
D89*
X008171Y002170D03*
D90*
X008179Y002170D03*
D91*
X008179Y003046D03*
D92*
X008211Y002198D03*
D93*
X008211Y003018D03*
D94*
X008219Y002206D03*
D95*
X008219Y003010D03*
D96*
X008227Y002214D03*
D97*
X008227Y003002D03*
D98*
X008363Y003010D03*
X008371Y003010D03*
X008235Y002242D03*
X008379Y002210D03*
D99*
X008387Y002214D03*
X008235Y002974D03*
D100*
X008243Y002970D03*
X008315Y003010D03*
X008331Y003018D03*
X008339Y002202D03*
X008347Y002202D03*
X008355Y002202D03*
D101*
X008259Y002974D03*
X008251Y002974D03*
X008323Y003014D03*
D102*
X008291Y002994D03*
X008267Y002978D03*
X008307Y002210D03*
D103*
X008275Y002234D03*
X008283Y002986D03*
D104*
X008339Y003014D03*
X008347Y003014D03*
X008355Y003014D03*
X008363Y002206D03*
X008371Y002206D03*
D105*
X008379Y003006D03*
D106*
X008387Y003002D03*
X008395Y002218D03*
D107*
X008403Y002222D03*
X008411Y002230D03*
X008395Y002998D03*
D108*
X008403Y002994D03*
D109*
X008523Y003134D03*
X008523Y002078D03*
D110*
X008531Y002074D03*
X008531Y003138D03*
M02*
