G75*
%MOIN*%
%OFA0B0*%
%FSLAX24Y24*%
%IPPOS*%
%LPD*%
%AMOC8*
5,1,8,0,0,1.08239X$1,22.5*
%
%ADD10OC8,0.0600*%
%ADD11R,0.0591X0.0591*%
%ADD12R,0.0945X0.0630*%
%ADD13R,0.0433X0.0394*%
%ADD14R,0.0984X0.0197*%
%ADD15R,0.0984X0.0787*%
%ADD16C,0.0100*%
%ADD17C,0.0160*%
%ADD18C,0.0270*%
%ADD19C,0.0240*%
D10*
X006063Y002150D03*
X006063Y003150D03*
X006163Y004400D03*
X007163Y004400D03*
X005163Y004400D03*
X010063Y003150D03*
X010063Y002150D03*
D11*
X004813Y001961D03*
X004813Y003339D03*
D12*
X007263Y003191D03*
X007263Y002009D03*
D13*
X004763Y001285D03*
X004763Y000615D03*
D14*
X003447Y002020D03*
X003447Y002335D03*
X003447Y002650D03*
X003447Y002965D03*
X003447Y003280D03*
D15*
X003447Y004422D03*
X001282Y004422D03*
X001282Y000878D03*
X003447Y000878D03*
D16*
X000713Y000356D02*
X000713Y000300D01*
X004453Y000300D01*
X004426Y000326D01*
X004407Y000361D01*
X004396Y000399D01*
X004396Y000567D01*
X004714Y000567D01*
X004714Y000664D01*
X004396Y000664D01*
X004396Y000832D01*
X004407Y000870D01*
X004426Y000904D01*
X004454Y000932D01*
X004477Y000945D01*
X004396Y001026D01*
X004396Y001544D01*
X004412Y001559D01*
X004368Y001604D01*
X004368Y002318D01*
X004426Y002377D01*
X004351Y002408D01*
X004271Y002489D01*
X004228Y002593D01*
X004228Y002707D01*
X004271Y002811D01*
X004351Y002892D01*
X004426Y002923D01*
X004368Y002982D01*
X004368Y003050D01*
X004089Y003050D01*
X004089Y002174D01*
X004082Y002167D01*
X004089Y002138D01*
X004089Y002020D01*
X003447Y002020D01*
X003447Y002020D01*
X003447Y001772D01*
X002943Y001772D01*
X002943Y001455D01*
X002901Y001413D01*
X002935Y001422D01*
X003397Y001422D01*
X003397Y000928D01*
X003397Y000828D01*
X003497Y000828D01*
X003497Y000335D01*
X003959Y000335D01*
X003997Y000345D01*
X004031Y000365D01*
X004059Y000393D01*
X004079Y000427D01*
X004089Y000465D01*
X004089Y000828D01*
X003497Y000828D01*
X003497Y000928D01*
X004089Y000928D01*
X004089Y001292D01*
X004079Y001330D01*
X004059Y001364D01*
X004031Y001392D01*
X003997Y001412D01*
X003959Y001422D01*
X003497Y001422D01*
X003497Y000928D01*
X003397Y000928D01*
X002805Y000928D01*
X002805Y001292D01*
X002814Y001326D01*
X002808Y001320D01*
X001916Y001320D01*
X001924Y001292D01*
X001924Y000928D01*
X001332Y000928D01*
X001332Y000828D01*
X001924Y000828D01*
X001924Y000465D01*
X001914Y000427D01*
X001894Y000393D01*
X001866Y000365D01*
X001832Y000345D01*
X001794Y000335D01*
X001332Y000335D01*
X001332Y000828D01*
X001232Y000828D01*
X001232Y000335D01*
X000770Y000335D01*
X000732Y000345D01*
X000713Y000356D01*
X000713Y000347D02*
X000728Y000347D01*
X001232Y000347D02*
X001332Y000347D01*
X001332Y000446D02*
X001232Y000446D01*
X001232Y000544D02*
X001332Y000544D01*
X001332Y000643D02*
X001232Y000643D01*
X001232Y000741D02*
X001332Y000741D01*
X001332Y000840D02*
X003397Y000840D01*
X003397Y000828D02*
X002805Y000828D01*
X002805Y000465D01*
X002815Y000427D01*
X002835Y000393D01*
X002863Y000365D01*
X002897Y000345D01*
X002935Y000335D01*
X003397Y000335D01*
X003397Y000828D01*
X003497Y000840D02*
X004398Y000840D01*
X004396Y000741D02*
X004089Y000741D01*
X004089Y000643D02*
X004714Y000643D01*
X004811Y000643D02*
X010596Y000643D01*
X010604Y000662D02*
X010537Y000500D01*
X010413Y000376D01*
X010251Y000309D01*
X010163Y000300D01*
X005073Y000300D01*
X005099Y000326D01*
X005119Y000361D01*
X005129Y000399D01*
X005129Y000567D01*
X004811Y000567D01*
X004811Y000664D01*
X005129Y000664D01*
X005129Y000832D01*
X005119Y000870D01*
X005099Y000904D01*
X005071Y000932D01*
X005049Y000945D01*
X005129Y001026D01*
X005129Y001516D01*
X005170Y001516D01*
X005258Y001604D01*
X005258Y002318D01*
X005197Y002380D01*
X005617Y002380D01*
X005685Y002408D01*
X005613Y002336D01*
X005613Y002200D01*
X006013Y002200D01*
X006013Y002600D01*
X005895Y002600D01*
X005995Y002700D01*
X006249Y002700D01*
X006429Y002880D01*
X006640Y002880D01*
X006640Y002813D01*
X006728Y002726D01*
X007797Y002726D01*
X007885Y002813D01*
X007885Y002880D01*
X009696Y002880D01*
X009876Y002700D01*
X010249Y002700D01*
X010513Y002964D01*
X010513Y003336D01*
X010249Y003600D01*
X009876Y003600D01*
X009696Y003420D01*
X007885Y003420D01*
X007885Y003568D01*
X007797Y003656D01*
X007433Y003656D01*
X007433Y004034D01*
X007613Y004214D01*
X007613Y004586D01*
X007349Y004850D01*
X006976Y004850D01*
X006713Y004586D01*
X006713Y004214D01*
X006893Y004034D01*
X006893Y003656D01*
X006728Y003656D01*
X006640Y003568D01*
X006640Y003420D01*
X006429Y003420D01*
X006249Y003600D01*
X005876Y003600D01*
X005613Y003336D01*
X005613Y003082D01*
X005451Y002920D01*
X005197Y002920D01*
X005258Y002982D01*
X005258Y003170D01*
X006038Y003950D01*
X006349Y003950D01*
X006613Y004214D01*
X006613Y004586D01*
X006349Y004850D01*
X005976Y004850D01*
X005713Y004586D01*
X005713Y004275D01*
X005196Y003758D01*
X005170Y003784D01*
X004455Y003784D01*
X004368Y003696D01*
X002943Y003696D01*
X002943Y003598D02*
X004368Y003598D01*
X004368Y003510D02*
X004020Y003510D01*
X004001Y003528D01*
X002943Y003528D01*
X002943Y003845D01*
X002901Y003887D01*
X002935Y003878D01*
X003397Y003878D01*
X003397Y004372D01*
X002805Y004372D01*
X002805Y004008D01*
X002814Y003974D01*
X002808Y003980D01*
X001916Y003980D01*
X001924Y004008D01*
X001924Y004372D01*
X001332Y004372D01*
X001332Y004472D01*
X001232Y004472D01*
X001232Y004965D01*
X000770Y004965D01*
X000732Y004955D01*
X000713Y004944D01*
X000713Y005000D01*
X010163Y005000D01*
X010251Y004991D01*
X010413Y004924D01*
X010537Y004800D01*
X010604Y004638D01*
X010613Y004550D01*
X010613Y000750D01*
X010604Y000662D01*
X010612Y000741D02*
X005129Y000741D01*
X005127Y000840D02*
X010613Y000840D01*
X010613Y000938D02*
X005061Y000938D01*
X005129Y001037D02*
X010613Y001037D01*
X010613Y001135D02*
X005129Y001135D01*
X005129Y001234D02*
X010613Y001234D01*
X010613Y001332D02*
X005129Y001332D01*
X005129Y001431D02*
X010613Y001431D01*
X010613Y001529D02*
X005183Y001529D01*
X005258Y001628D02*
X006656Y001628D01*
X006651Y001637D02*
X006670Y001602D01*
X006698Y001574D01*
X006732Y001555D01*
X006771Y001544D01*
X007213Y001544D01*
X007213Y001959D01*
X007313Y001959D01*
X007313Y001544D01*
X007755Y001544D01*
X007793Y001555D01*
X007827Y001574D01*
X007855Y001602D01*
X007875Y001637D01*
X007885Y001675D01*
X007885Y001959D01*
X007313Y001959D01*
X007313Y002059D01*
X007885Y002059D01*
X007885Y002344D01*
X007875Y002382D01*
X007855Y002417D01*
X007827Y002444D01*
X007793Y002464D01*
X007755Y002474D01*
X007313Y002474D01*
X007313Y002059D01*
X007213Y002059D01*
X007213Y001959D01*
X006640Y001959D01*
X006640Y001675D01*
X006651Y001637D01*
X006640Y001726D02*
X006275Y001726D01*
X006249Y001700D02*
X006513Y001964D01*
X006513Y002100D01*
X006113Y002100D01*
X006113Y002200D01*
X006513Y002200D01*
X006513Y002336D01*
X006249Y002600D01*
X006113Y002600D01*
X006113Y002200D01*
X006013Y002200D01*
X006013Y002100D01*
X006113Y002100D01*
X006113Y001700D01*
X006249Y001700D01*
X006113Y001726D02*
X006013Y001726D01*
X006013Y001700D02*
X006013Y002100D01*
X005613Y002100D01*
X005613Y001964D01*
X005876Y001700D01*
X006013Y001700D01*
X006013Y001825D02*
X006113Y001825D01*
X006113Y001923D02*
X006013Y001923D01*
X006013Y002022D02*
X006113Y002022D01*
X006113Y002120D02*
X006640Y002120D01*
X006640Y002219D02*
X006513Y002219D01*
X006513Y002317D02*
X006640Y002317D01*
X006640Y002344D02*
X006640Y002059D01*
X007213Y002059D01*
X007213Y002474D01*
X006771Y002474D01*
X006732Y002464D01*
X006698Y002444D01*
X006670Y002417D01*
X006651Y002382D01*
X006640Y002344D01*
X006670Y002416D02*
X006434Y002416D01*
X006335Y002514D02*
X009790Y002514D01*
X009876Y002600D02*
X009613Y002336D01*
X009613Y002200D01*
X010013Y002200D01*
X010013Y002600D01*
X009876Y002600D01*
X009865Y002711D02*
X006260Y002711D01*
X006359Y002810D02*
X006644Y002810D01*
X006113Y002514D02*
X006013Y002514D01*
X006013Y002416D02*
X006113Y002416D01*
X006113Y002317D02*
X006013Y002317D01*
X006013Y002219D02*
X006113Y002219D01*
X006013Y002120D02*
X005258Y002120D01*
X005258Y002219D02*
X005613Y002219D01*
X005613Y002317D02*
X005258Y002317D01*
X005258Y002022D02*
X005613Y002022D01*
X005653Y001923D02*
X005258Y001923D01*
X005258Y001825D02*
X005752Y001825D01*
X005850Y001726D02*
X005258Y001726D01*
X004396Y001529D02*
X002943Y001529D01*
X002943Y001628D02*
X004368Y001628D01*
X004368Y001726D02*
X002943Y001726D01*
X003447Y001772D02*
X003959Y001772D01*
X003997Y001782D01*
X004031Y001802D01*
X004059Y001830D01*
X004079Y001864D01*
X004089Y001902D01*
X004089Y002020D01*
X003447Y002020D01*
X003447Y001772D01*
X003447Y001825D02*
X003447Y001825D01*
X003447Y001923D02*
X003447Y001923D01*
X003447Y002020D02*
X003447Y002020D01*
X004054Y001825D02*
X004368Y001825D01*
X004368Y001923D02*
X004089Y001923D01*
X004089Y002022D02*
X004368Y002022D01*
X004368Y002120D02*
X004089Y002120D01*
X004089Y002219D02*
X004368Y002219D01*
X004368Y002317D02*
X004089Y002317D01*
X004089Y002416D02*
X004344Y002416D01*
X004261Y002514D02*
X004089Y002514D01*
X004089Y002613D02*
X004228Y002613D01*
X004230Y002711D02*
X004089Y002711D01*
X004089Y002810D02*
X004270Y002810D01*
X004391Y002908D02*
X004089Y002908D01*
X004089Y003007D02*
X004368Y003007D01*
X005258Y003007D02*
X005538Y003007D01*
X005613Y003105D02*
X005258Y003105D01*
X005292Y003204D02*
X005613Y003204D01*
X005613Y003302D02*
X005390Y003302D01*
X005489Y003401D02*
X005677Y003401D01*
X005587Y003499D02*
X005775Y003499D01*
X005686Y003598D02*
X005874Y003598D01*
X005784Y003696D02*
X006893Y003696D01*
X006893Y003795D02*
X005883Y003795D01*
X005981Y003893D02*
X006893Y003893D01*
X006893Y003992D02*
X006391Y003992D01*
X006489Y004090D02*
X006836Y004090D01*
X006738Y004189D02*
X006588Y004189D01*
X006613Y004287D02*
X006713Y004287D01*
X006713Y004386D02*
X006613Y004386D01*
X006613Y004484D02*
X006713Y004484D01*
X006713Y004583D02*
X006613Y004583D01*
X006518Y004681D02*
X006807Y004681D01*
X006906Y004780D02*
X006420Y004780D01*
X005906Y004780D02*
X005420Y004780D01*
X005349Y004850D02*
X004976Y004850D01*
X004713Y004586D01*
X004713Y004214D01*
X004976Y003950D01*
X005349Y003950D01*
X005613Y004214D01*
X005613Y004586D01*
X005349Y004850D01*
X005518Y004681D02*
X005807Y004681D01*
X005713Y004583D02*
X005613Y004583D01*
X005613Y004484D02*
X005713Y004484D01*
X005713Y004386D02*
X005613Y004386D01*
X005613Y004287D02*
X005713Y004287D01*
X005626Y004189D02*
X005588Y004189D01*
X005528Y004090D02*
X005489Y004090D01*
X005429Y003992D02*
X005391Y003992D01*
X005331Y003893D02*
X004005Y003893D01*
X003997Y003888D02*
X004031Y003908D01*
X004059Y003936D01*
X004079Y003970D01*
X004089Y004008D01*
X004089Y004372D01*
X003497Y004372D01*
X003497Y004472D01*
X003397Y004472D01*
X003397Y004965D01*
X002935Y004965D01*
X002897Y004955D01*
X002863Y004935D01*
X002835Y004907D01*
X002815Y004873D01*
X002805Y004835D01*
X002805Y004472D01*
X003397Y004472D01*
X003397Y004372D01*
X003497Y004372D01*
X003497Y003878D01*
X003959Y003878D01*
X003997Y003888D01*
X004085Y003992D02*
X004935Y003992D01*
X004836Y004090D02*
X004089Y004090D01*
X004089Y004189D02*
X004738Y004189D01*
X004713Y004287D02*
X004089Y004287D01*
X004089Y004472D02*
X004089Y004835D01*
X004079Y004873D01*
X004059Y004907D01*
X004031Y004935D01*
X003997Y004955D01*
X003959Y004965D01*
X003497Y004965D01*
X003497Y004472D01*
X004089Y004472D01*
X004089Y004484D02*
X004713Y004484D01*
X004713Y004386D02*
X003497Y004386D01*
X003397Y004386D02*
X001332Y004386D01*
X001332Y004472D02*
X001924Y004472D01*
X001924Y004835D01*
X001914Y004873D01*
X001894Y004907D01*
X001866Y004935D01*
X001832Y004955D01*
X001794Y004965D01*
X001332Y004965D01*
X001332Y004472D01*
X001332Y004484D02*
X001232Y004484D01*
X001232Y004583D02*
X001332Y004583D01*
X001332Y004681D02*
X001232Y004681D01*
X001232Y004780D02*
X001332Y004780D01*
X001332Y004878D02*
X001232Y004878D01*
X000713Y004977D02*
X010286Y004977D01*
X010459Y004878D02*
X004076Y004878D01*
X004089Y004780D02*
X004906Y004780D01*
X004807Y004681D02*
X004089Y004681D01*
X004089Y004583D02*
X004713Y004583D01*
X003497Y004583D02*
X003397Y004583D01*
X003397Y004681D02*
X003497Y004681D01*
X003497Y004780D02*
X003397Y004780D01*
X003397Y004878D02*
X003497Y004878D01*
X002818Y004878D02*
X001911Y004878D01*
X001924Y004780D02*
X002805Y004780D01*
X002805Y004681D02*
X001924Y004681D01*
X001924Y004583D02*
X002805Y004583D01*
X002805Y004484D02*
X001924Y004484D01*
X001924Y004287D02*
X002805Y004287D01*
X002805Y004189D02*
X001924Y004189D01*
X001924Y004090D02*
X002805Y004090D01*
X002809Y003992D02*
X001919Y003992D01*
X002943Y003795D02*
X005232Y003795D01*
X004368Y003696D02*
X004368Y003510D01*
X003497Y003893D02*
X003397Y003893D01*
X003397Y003992D02*
X003497Y003992D01*
X003497Y004090D02*
X003397Y004090D01*
X003397Y004189D02*
X003497Y004189D01*
X003497Y004287D02*
X003397Y004287D01*
X003397Y004484D02*
X003497Y004484D01*
X006252Y003598D02*
X006670Y003598D01*
X006640Y003499D02*
X006350Y003499D01*
X007433Y003696D02*
X010613Y003696D01*
X010613Y003598D02*
X010252Y003598D01*
X010350Y003499D02*
X010613Y003499D01*
X010613Y003401D02*
X010449Y003401D01*
X010513Y003302D02*
X010613Y003302D01*
X010613Y003204D02*
X010513Y003204D01*
X010513Y003105D02*
X010613Y003105D01*
X010613Y003007D02*
X010513Y003007D01*
X010457Y002908D02*
X010613Y002908D01*
X010613Y002810D02*
X010359Y002810D01*
X010260Y002711D02*
X010613Y002711D01*
X010613Y002613D02*
X005907Y002613D01*
X006513Y002022D02*
X007213Y002022D01*
X007313Y002022D02*
X009613Y002022D01*
X009613Y001964D02*
X009876Y001700D01*
X010013Y001700D01*
X010013Y002100D01*
X010113Y002100D01*
X010113Y002200D01*
X010513Y002200D01*
X010513Y002336D01*
X010249Y002600D01*
X010113Y002600D01*
X010113Y002200D01*
X010013Y002200D01*
X010013Y002100D01*
X009613Y002100D01*
X009613Y001964D01*
X009653Y001923D02*
X007885Y001923D01*
X007885Y001825D02*
X009752Y001825D01*
X009850Y001726D02*
X007885Y001726D01*
X007870Y001628D02*
X010613Y001628D01*
X010613Y001726D02*
X010275Y001726D01*
X010249Y001700D02*
X010513Y001964D01*
X010513Y002100D01*
X010113Y002100D01*
X010113Y001700D01*
X010249Y001700D01*
X010113Y001726D02*
X010013Y001726D01*
X010013Y001825D02*
X010113Y001825D01*
X010113Y001923D02*
X010013Y001923D01*
X010013Y002022D02*
X010113Y002022D01*
X010113Y002120D02*
X010613Y002120D01*
X010613Y002219D02*
X010513Y002219D01*
X010513Y002317D02*
X010613Y002317D01*
X010613Y002416D02*
X010434Y002416D01*
X010335Y002514D02*
X010613Y002514D01*
X010113Y002514D02*
X010013Y002514D01*
X010013Y002416D02*
X010113Y002416D01*
X010113Y002317D02*
X010013Y002317D01*
X010013Y002219D02*
X010113Y002219D01*
X010013Y002120D02*
X007885Y002120D01*
X007885Y002219D02*
X009613Y002219D01*
X009613Y002317D02*
X007885Y002317D01*
X007856Y002416D02*
X009692Y002416D01*
X009767Y002810D02*
X007881Y002810D01*
X007313Y002416D02*
X007213Y002416D01*
X007213Y002317D02*
X007313Y002317D01*
X007313Y002219D02*
X007213Y002219D01*
X007213Y002120D02*
X007313Y002120D01*
X007313Y001923D02*
X007213Y001923D01*
X007213Y001825D02*
X007313Y001825D01*
X007313Y001726D02*
X007213Y001726D01*
X007213Y001628D02*
X007313Y001628D01*
X006640Y001825D02*
X006374Y001825D01*
X006472Y001923D02*
X006640Y001923D01*
X004396Y001431D02*
X002919Y001431D01*
X002805Y001234D02*
X001924Y001234D01*
X001924Y001135D02*
X002805Y001135D01*
X002805Y001037D02*
X001924Y001037D01*
X001924Y000938D02*
X002805Y000938D01*
X002805Y000741D02*
X001924Y000741D01*
X001924Y000643D02*
X002805Y000643D01*
X002805Y000544D02*
X001924Y000544D01*
X001919Y000446D02*
X002810Y000446D01*
X002893Y000347D02*
X001835Y000347D01*
X003397Y000347D02*
X003497Y000347D01*
X003497Y000446D02*
X003397Y000446D01*
X003397Y000544D02*
X003497Y000544D01*
X003497Y000643D02*
X003397Y000643D01*
X003397Y000741D02*
X003497Y000741D01*
X003497Y000938D02*
X003397Y000938D01*
X003397Y001037D02*
X003497Y001037D01*
X003497Y001135D02*
X003397Y001135D01*
X003397Y001234D02*
X003497Y001234D01*
X003497Y001332D02*
X003397Y001332D01*
X004078Y001332D02*
X004396Y001332D01*
X004396Y001234D02*
X004089Y001234D01*
X004089Y001135D02*
X004396Y001135D01*
X004396Y001037D02*
X004089Y001037D01*
X004089Y000938D02*
X004464Y000938D01*
X004396Y000544D02*
X004089Y000544D01*
X004084Y000446D02*
X004396Y000446D01*
X004414Y000347D02*
X004001Y000347D01*
X005111Y000347D02*
X010343Y000347D01*
X010483Y000446D02*
X005129Y000446D01*
X005129Y000544D02*
X010555Y000544D01*
X010613Y001825D02*
X010374Y001825D01*
X010472Y001923D02*
X010613Y001923D01*
X010613Y002022D02*
X010513Y002022D01*
X009775Y003499D02*
X007885Y003499D01*
X007855Y003598D02*
X009874Y003598D01*
X010613Y003795D02*
X007433Y003795D01*
X007433Y003893D02*
X010613Y003893D01*
X010613Y003992D02*
X007433Y003992D01*
X007489Y004090D02*
X010613Y004090D01*
X010613Y004189D02*
X007588Y004189D01*
X007613Y004287D02*
X010613Y004287D01*
X010613Y004386D02*
X007613Y004386D01*
X007613Y004484D02*
X010613Y004484D01*
X010610Y004583D02*
X007613Y004583D01*
X007518Y004681D02*
X010586Y004681D01*
X010545Y004780D02*
X007420Y004780D01*
D17*
X006163Y004400D02*
X005102Y003339D01*
X004813Y003339D01*
X004754Y003280D01*
X003447Y003280D01*
X002713Y003261D02*
X002665Y003213D01*
X002534Y003159D01*
X002392Y003159D01*
X002261Y003213D01*
X002160Y003314D01*
X002106Y003445D01*
X002106Y003587D01*
X002160Y003718D01*
X002192Y003750D01*
X000813Y003750D01*
X000813Y001550D01*
X002192Y001550D01*
X002160Y001582D01*
X002106Y001713D01*
X002106Y001855D01*
X002160Y001986D01*
X002261Y002087D01*
X002392Y002141D01*
X002534Y002141D01*
X002665Y002087D01*
X002713Y002039D01*
X002713Y003261D01*
X002713Y003162D02*
X002540Y003162D01*
X002386Y003162D02*
X000813Y003162D01*
X000813Y003320D02*
X002157Y003320D01*
X002106Y003479D02*
X000813Y003479D01*
X000813Y003637D02*
X002126Y003637D01*
X002713Y003003D02*
X000813Y003003D01*
X000813Y002845D02*
X002713Y002845D01*
X002713Y002686D02*
X000813Y002686D01*
X000813Y002528D02*
X002713Y002528D01*
X002713Y002369D02*
X000813Y002369D01*
X000813Y002211D02*
X002713Y002211D01*
X002700Y002052D02*
X002713Y002052D01*
X002226Y002052D02*
X000813Y002052D01*
X000813Y001894D02*
X002122Y001894D01*
X002106Y001735D02*
X000813Y001735D01*
X000813Y001577D02*
X002165Y001577D01*
X004763Y001285D02*
X004763Y001911D01*
X004813Y001961D01*
D18*
X004513Y002650D03*
X002413Y002650D03*
X002013Y002450D03*
X001613Y002450D03*
X001213Y002450D03*
X000813Y002450D03*
X000813Y002850D03*
X001213Y002850D03*
X001613Y002850D03*
X002013Y002850D03*
X002413Y003050D03*
X002013Y003250D03*
X001613Y003250D03*
X001213Y003250D03*
X000813Y003250D03*
X000813Y003650D03*
X001213Y003650D03*
X001613Y003650D03*
X002013Y003650D03*
X002413Y002250D03*
X002013Y002050D03*
X001613Y002050D03*
X001213Y002050D03*
X000813Y002050D03*
X000813Y001650D03*
X001213Y001650D03*
X001613Y001650D03*
X002013Y001650D03*
D19*
X004513Y002650D02*
X005563Y002650D01*
X006063Y003150D01*
X007022Y003150D01*
X007263Y003191D01*
X007163Y003291D01*
X007163Y004400D01*
X007072Y003200D02*
X007263Y003191D01*
X007313Y003200D02*
X007363Y003150D01*
X010063Y003150D01*
X007313Y003200D02*
X007072Y003200D01*
M02*
