G75*
%MOIN*%
%OFA0B0*%
%FSLAX24Y24*%
%IPPOS*%
%LPD*%
%AMOC8*
5,1,8,0,0,1.08239X$1,22.5*
%
%ADD10R,0.0880X0.0480*%
%ADD11R,0.0866X0.1417*%
%ADD12OC8,0.0600*%
%ADD13R,0.0433X0.0394*%
%ADD14R,0.0630X0.0709*%
%ADD15C,0.0240*%
%ADD16C,0.0100*%
%ADD17C,0.0270*%
%ADD18C,0.0160*%
D10*
X003883Y001740D03*
X003883Y002650D03*
X003883Y003560D03*
D11*
X001443Y002650D03*
D12*
X005163Y004400D03*
X006163Y004400D03*
X007163Y004400D03*
X006063Y003150D03*
X006063Y002150D03*
X010063Y002150D03*
X010063Y003150D03*
D13*
X005297Y001750D03*
X004628Y001750D03*
X004097Y004450D03*
X003428Y004450D03*
D14*
X004162Y000800D03*
X005264Y000800D03*
D15*
X004162Y000800D02*
X004162Y001649D01*
X004163Y001650D01*
X003973Y001650D01*
X003883Y001740D01*
X003893Y001750D01*
X004628Y001750D01*
X004663Y001785D01*
X004663Y002000D01*
X005363Y002700D01*
X005363Y004200D01*
X005163Y004400D01*
X004513Y002650D02*
X003883Y002650D01*
D16*
X004385Y003040D02*
X004473Y002952D01*
X004473Y002935D01*
X004570Y002935D01*
X004674Y002892D01*
X004754Y002811D01*
X004798Y002707D01*
X004798Y002593D01*
X004754Y002489D01*
X004674Y002408D01*
X004570Y002365D01*
X004473Y002365D01*
X004473Y002348D01*
X004385Y002260D01*
X003863Y002260D01*
X003863Y002130D01*
X004385Y002130D01*
X004413Y002102D01*
X004434Y002153D01*
X004510Y002229D01*
X005093Y002812D01*
X005093Y003950D01*
X004976Y003950D01*
X004713Y004214D01*
X004713Y004586D01*
X004976Y004850D01*
X005349Y004850D01*
X005613Y004586D01*
X005613Y004302D01*
X005633Y004254D01*
X005633Y003356D01*
X005876Y003600D01*
X006249Y003600D01*
X006513Y003336D01*
X006513Y002964D01*
X006249Y002700D01*
X005876Y002700D01*
X005633Y002944D01*
X005633Y002646D01*
X005592Y002547D01*
X005142Y002097D01*
X005249Y002097D01*
X005249Y001798D01*
X005346Y001798D01*
X005664Y001798D01*
X005664Y001912D01*
X005876Y001700D01*
X006013Y001700D01*
X006013Y002100D01*
X006113Y002100D01*
X006113Y002200D01*
X006513Y002200D01*
X006513Y002336D01*
X006249Y002600D01*
X006113Y002600D01*
X006113Y002200D01*
X006013Y002200D01*
X006013Y002600D01*
X005876Y002600D01*
X005613Y002336D01*
X005613Y002200D01*
X006013Y002200D01*
X006013Y002100D01*
X005613Y002100D01*
X005613Y002060D01*
X005606Y002067D01*
X005572Y002087D01*
X005534Y002097D01*
X005346Y002097D01*
X005346Y001798D01*
X005346Y001702D01*
X005664Y001702D01*
X005664Y001533D01*
X005654Y001495D01*
X005634Y001461D01*
X005606Y001433D01*
X005572Y001413D01*
X005534Y001403D01*
X005346Y001403D01*
X005346Y001702D01*
X005249Y001702D01*
X005249Y001403D01*
X005061Y001403D01*
X005023Y001413D01*
X004989Y001433D01*
X004963Y001459D01*
X004907Y001403D01*
X004438Y001403D01*
X004432Y001397D01*
X004432Y001304D01*
X004539Y001304D01*
X004627Y001216D01*
X004627Y000384D01*
X004543Y000300D01*
X004913Y000300D01*
X004891Y000306D01*
X004857Y000326D01*
X004829Y000354D01*
X004809Y000388D01*
X004799Y000426D01*
X004799Y000750D01*
X005214Y000750D01*
X005214Y000850D01*
X004799Y000850D01*
X004799Y001174D01*
X004809Y001212D01*
X004829Y001246D01*
X004857Y001274D01*
X004891Y001294D01*
X004929Y001304D01*
X005214Y001304D01*
X005214Y000850D01*
X005314Y000850D01*
X005314Y001304D01*
X005599Y001304D01*
X005637Y001294D01*
X005671Y001274D01*
X005699Y001246D01*
X005719Y001212D01*
X005729Y001174D01*
X005729Y000850D01*
X005314Y000850D01*
X005314Y000750D01*
X005729Y000750D01*
X005729Y000426D01*
X005719Y000388D01*
X005699Y000354D01*
X005671Y000326D01*
X005637Y000306D01*
X005615Y000300D01*
X010163Y000300D01*
X010251Y000309D01*
X010413Y000376D01*
X010537Y000500D01*
X010604Y000662D01*
X010613Y000750D01*
X010613Y004550D01*
X010604Y004638D01*
X010537Y004800D01*
X010413Y004924D01*
X010251Y004991D01*
X010163Y005000D01*
X003863Y005000D01*
X003863Y004797D01*
X004049Y004797D01*
X004049Y004498D01*
X004146Y004498D01*
X004464Y004498D01*
X004464Y004667D01*
X004454Y004705D01*
X004434Y004739D01*
X004406Y004767D01*
X004372Y004787D01*
X004334Y004797D01*
X004146Y004797D01*
X004146Y004498D01*
X004146Y004402D01*
X004464Y004402D01*
X004464Y004233D01*
X004454Y004195D01*
X004434Y004161D01*
X004406Y004133D01*
X004372Y004113D01*
X004334Y004103D01*
X004146Y004103D01*
X004146Y004402D01*
X004049Y004402D01*
X004049Y004103D01*
X003863Y004103D01*
X003863Y003610D01*
X003933Y003610D01*
X004473Y003610D01*
X004473Y003820D01*
X004463Y003858D01*
X004443Y003892D01*
X004415Y003920D01*
X004381Y003940D01*
X004343Y003950D01*
X003933Y003950D01*
X003933Y003610D01*
X003933Y003510D01*
X004473Y003510D01*
X004473Y003300D01*
X004463Y003262D01*
X004443Y003228D01*
X004415Y003200D01*
X004381Y003180D01*
X004343Y003170D01*
X003933Y003170D01*
X003933Y003510D01*
X003863Y003510D01*
X003863Y003040D01*
X004385Y003040D01*
X004418Y003007D02*
X005093Y003007D01*
X005093Y003105D02*
X003863Y003105D01*
X003863Y003204D02*
X003933Y003204D01*
X003933Y003302D02*
X003863Y003302D01*
X003863Y003401D02*
X003933Y003401D01*
X003933Y003499D02*
X003863Y003499D01*
X003933Y003598D02*
X005093Y003598D01*
X005093Y003499D02*
X004473Y003499D01*
X004473Y003401D02*
X005093Y003401D01*
X005093Y003302D02*
X004473Y003302D01*
X004418Y003204D02*
X005093Y003204D01*
X005633Y003401D02*
X005677Y003401D01*
X005633Y003499D02*
X005775Y003499D01*
X005874Y003598D02*
X005633Y003598D01*
X005633Y003696D02*
X010613Y003696D01*
X010613Y003598D02*
X010252Y003598D01*
X010249Y003600D02*
X009876Y003600D01*
X009613Y003336D01*
X009613Y002964D01*
X009876Y002700D01*
X010249Y002700D01*
X010513Y002964D01*
X010513Y003336D01*
X010249Y003600D01*
X010350Y003499D02*
X010613Y003499D01*
X010613Y003401D02*
X010449Y003401D01*
X010513Y003302D02*
X010613Y003302D01*
X010613Y003204D02*
X010513Y003204D01*
X010513Y003105D02*
X010613Y003105D01*
X010613Y003007D02*
X010513Y003007D01*
X010457Y002908D02*
X010613Y002908D01*
X010613Y002810D02*
X010359Y002810D01*
X010260Y002711D02*
X010613Y002711D01*
X010613Y002613D02*
X005619Y002613D01*
X005633Y002711D02*
X005865Y002711D01*
X005767Y002810D02*
X005633Y002810D01*
X005633Y002908D02*
X005668Y002908D01*
X005093Y002908D02*
X004635Y002908D01*
X004755Y002810D02*
X005091Y002810D01*
X004992Y002711D02*
X004796Y002711D01*
X004798Y002613D02*
X004894Y002613D01*
X004795Y002514D02*
X004765Y002514D01*
X004697Y002416D02*
X004681Y002416D01*
X004598Y002317D02*
X004442Y002317D01*
X004500Y002219D02*
X003863Y002219D01*
X004395Y002120D02*
X004420Y002120D01*
X005165Y002120D02*
X006013Y002120D01*
X006013Y002219D02*
X006113Y002219D01*
X006113Y002120D02*
X010013Y002120D01*
X010013Y002100D02*
X009613Y002100D01*
X009613Y001964D01*
X009876Y001700D01*
X010013Y001700D01*
X010013Y002100D01*
X010113Y002100D01*
X010113Y002200D01*
X010513Y002200D01*
X010513Y002336D01*
X010249Y002600D01*
X010113Y002600D01*
X010113Y002200D01*
X010013Y002200D01*
X010013Y002600D01*
X009876Y002600D01*
X009613Y002336D01*
X009613Y002200D01*
X010013Y002200D01*
X010013Y002100D01*
X010013Y002022D02*
X010113Y002022D01*
X010113Y002100D02*
X010113Y001700D01*
X010249Y001700D01*
X010513Y001964D01*
X010513Y002100D01*
X010113Y002100D01*
X010113Y002120D02*
X010613Y002120D01*
X010613Y002219D02*
X010513Y002219D01*
X010513Y002317D02*
X010613Y002317D01*
X010613Y002416D02*
X010434Y002416D01*
X010335Y002514D02*
X010613Y002514D01*
X010113Y002514D02*
X010013Y002514D01*
X010013Y002416D02*
X010113Y002416D01*
X010113Y002317D02*
X010013Y002317D01*
X010013Y002219D02*
X010113Y002219D01*
X010513Y002022D02*
X010613Y002022D01*
X010613Y001923D02*
X010472Y001923D01*
X010374Y001825D02*
X010613Y001825D01*
X010613Y001726D02*
X010275Y001726D01*
X010113Y001726D02*
X010013Y001726D01*
X009850Y001726D02*
X006275Y001726D01*
X006249Y001700D02*
X006513Y001964D01*
X006513Y002100D01*
X006113Y002100D01*
X006113Y001700D01*
X006249Y001700D01*
X006113Y001726D02*
X006013Y001726D01*
X006013Y001825D02*
X006113Y001825D01*
X006113Y001923D02*
X006013Y001923D01*
X006013Y002022D02*
X006113Y002022D01*
X006472Y001923D02*
X009653Y001923D01*
X009613Y002022D02*
X006513Y002022D01*
X006513Y002219D02*
X009613Y002219D01*
X009613Y002317D02*
X006513Y002317D01*
X006434Y002416D02*
X009692Y002416D01*
X009790Y002514D02*
X006335Y002514D01*
X006113Y002514D02*
X006013Y002514D01*
X006013Y002416D02*
X006113Y002416D01*
X006113Y002317D02*
X006013Y002317D01*
X005692Y002416D02*
X005460Y002416D01*
X005559Y002514D02*
X005790Y002514D01*
X005613Y002317D02*
X005362Y002317D01*
X005263Y002219D02*
X005613Y002219D01*
X005346Y002022D02*
X005249Y002022D01*
X005249Y001923D02*
X005346Y001923D01*
X005346Y001825D02*
X005249Y001825D01*
X005346Y001726D02*
X005850Y001726D01*
X005752Y001825D02*
X005664Y001825D01*
X005664Y001628D02*
X010613Y001628D01*
X010613Y001529D02*
X005663Y001529D01*
X005602Y001431D02*
X010613Y001431D01*
X010613Y001332D02*
X004432Y001332D01*
X004610Y001234D02*
X004822Y001234D01*
X004799Y001135D02*
X004627Y001135D01*
X004627Y001037D02*
X004799Y001037D01*
X004799Y000938D02*
X004627Y000938D01*
X004627Y000840D02*
X005214Y000840D01*
X005314Y000840D02*
X010613Y000840D01*
X010613Y000938D02*
X005729Y000938D01*
X005729Y001037D02*
X010613Y001037D01*
X010613Y001135D02*
X005729Y001135D01*
X005706Y001234D02*
X010613Y001234D01*
X010612Y000741D02*
X005729Y000741D01*
X005729Y000643D02*
X010596Y000643D01*
X010555Y000544D02*
X005729Y000544D01*
X005729Y000446D02*
X010483Y000446D01*
X010343Y000347D02*
X005692Y000347D01*
X004836Y000347D02*
X004590Y000347D01*
X004627Y000446D02*
X004799Y000446D01*
X004799Y000544D02*
X004627Y000544D01*
X004627Y000643D02*
X004799Y000643D01*
X004799Y000741D02*
X004627Y000741D01*
X005214Y000938D02*
X005314Y000938D01*
X005314Y001037D02*
X005214Y001037D01*
X005214Y001135D02*
X005314Y001135D01*
X005314Y001234D02*
X005214Y001234D01*
X005249Y001431D02*
X005346Y001431D01*
X005346Y001529D02*
X005249Y001529D01*
X005249Y001628D02*
X005346Y001628D01*
X004993Y001431D02*
X004934Y001431D01*
X006374Y001825D02*
X009752Y001825D01*
X010013Y001825D02*
X010113Y001825D01*
X010113Y001923D02*
X010013Y001923D01*
X009865Y002711D02*
X006260Y002711D01*
X006359Y002810D02*
X009767Y002810D01*
X009668Y002908D02*
X006457Y002908D01*
X006513Y003007D02*
X009613Y003007D01*
X009613Y003105D02*
X006513Y003105D01*
X006513Y003204D02*
X009613Y003204D01*
X009613Y003302D02*
X006513Y003302D01*
X006449Y003401D02*
X009677Y003401D01*
X009775Y003499D02*
X006350Y003499D01*
X006252Y003598D02*
X009874Y003598D01*
X010613Y003795D02*
X005633Y003795D01*
X005633Y003893D02*
X010613Y003893D01*
X010613Y003992D02*
X007391Y003992D01*
X007349Y003950D02*
X007613Y004214D01*
X007613Y004586D01*
X007349Y004850D01*
X006976Y004850D01*
X006713Y004586D01*
X006713Y004214D01*
X006976Y003950D01*
X007349Y003950D01*
X007489Y004090D02*
X010613Y004090D01*
X010613Y004189D02*
X007588Y004189D01*
X007613Y004287D02*
X010613Y004287D01*
X010613Y004386D02*
X007613Y004386D01*
X007613Y004484D02*
X010613Y004484D01*
X010610Y004583D02*
X007613Y004583D01*
X007518Y004681D02*
X010586Y004681D01*
X010545Y004780D02*
X007420Y004780D01*
X006906Y004780D02*
X006420Y004780D01*
X006349Y004850D02*
X005976Y004850D01*
X005713Y004586D01*
X005713Y004214D01*
X005976Y003950D01*
X006349Y003950D01*
X006613Y004214D01*
X006613Y004586D01*
X006349Y004850D01*
X006518Y004681D02*
X006807Y004681D01*
X006713Y004583D02*
X006613Y004583D01*
X006613Y004484D02*
X006713Y004484D01*
X006713Y004386D02*
X006613Y004386D01*
X006613Y004287D02*
X006713Y004287D01*
X006738Y004189D02*
X006588Y004189D01*
X006489Y004090D02*
X006836Y004090D01*
X006935Y003992D02*
X006391Y003992D01*
X005935Y003992D02*
X005633Y003992D01*
X005633Y004090D02*
X005836Y004090D01*
X005738Y004189D02*
X005633Y004189D01*
X005619Y004287D02*
X005713Y004287D01*
X005713Y004386D02*
X005613Y004386D01*
X005613Y004484D02*
X005713Y004484D01*
X005713Y004583D02*
X005613Y004583D01*
X005518Y004681D02*
X005807Y004681D01*
X005906Y004780D02*
X005420Y004780D01*
X004906Y004780D02*
X004384Y004780D01*
X004460Y004681D02*
X004807Y004681D01*
X004713Y004583D02*
X004464Y004583D01*
X004713Y004484D02*
X004146Y004484D01*
X004146Y004386D02*
X004049Y004386D01*
X004049Y004287D02*
X004146Y004287D01*
X004146Y004189D02*
X004049Y004189D01*
X003863Y004090D02*
X004836Y004090D01*
X004738Y004189D02*
X004450Y004189D01*
X004464Y004287D02*
X004713Y004287D01*
X004713Y004386D02*
X004464Y004386D01*
X004146Y004583D02*
X004049Y004583D01*
X004049Y004681D02*
X004146Y004681D01*
X004146Y004780D02*
X004049Y004780D01*
X003863Y004878D02*
X010459Y004878D01*
X010286Y004977D02*
X003863Y004977D01*
X003863Y003992D02*
X004935Y003992D01*
X005093Y003893D02*
X004442Y003893D01*
X004473Y003795D02*
X005093Y003795D01*
X005093Y003696D02*
X004473Y003696D01*
X003933Y003696D02*
X003863Y003696D01*
X003863Y003795D02*
X003933Y003795D01*
X003933Y003893D02*
X003863Y003893D01*
D17*
X002413Y003050D03*
X002013Y002850D03*
X001613Y002850D03*
X001213Y002850D03*
X000813Y002850D03*
X000813Y002450D03*
X001213Y002450D03*
X001613Y002450D03*
X002013Y002450D03*
X002413Y002250D03*
X002013Y002050D03*
X001613Y002050D03*
X001213Y002050D03*
X000813Y002050D03*
X000813Y001650D03*
X001213Y001650D03*
X001613Y001650D03*
X002013Y001650D03*
X002413Y002650D03*
X002013Y003250D03*
X001613Y003250D03*
X001213Y003250D03*
X000813Y003250D03*
X000813Y003650D03*
X001213Y003650D03*
X001613Y003650D03*
X002013Y003650D03*
X004513Y002650D03*
D18*
X000763Y000350D02*
X000763Y004950D01*
X003613Y004950D01*
X003613Y004827D01*
X003447Y004827D01*
X003447Y004468D01*
X003410Y004468D01*
X003410Y004432D01*
X003032Y004432D01*
X003032Y004229D01*
X003044Y004184D01*
X003068Y004143D01*
X003101Y004109D01*
X003142Y004085D01*
X003188Y004073D01*
X003410Y004073D01*
X003410Y004432D01*
X003447Y004432D01*
X003447Y004073D01*
X003613Y004073D01*
X003613Y004000D01*
X003360Y004000D01*
X003243Y003883D01*
X003243Y003237D01*
X003360Y003120D01*
X003613Y003120D01*
X003613Y003070D01*
X003419Y003070D01*
X003373Y003058D01*
X003332Y003034D01*
X003299Y003001D01*
X003275Y002959D01*
X003263Y002914D01*
X003263Y002690D01*
X003613Y002690D01*
X003613Y002610D01*
X003263Y002610D01*
X003263Y002386D01*
X003275Y002341D01*
X003299Y002299D01*
X003332Y002266D01*
X003373Y002242D01*
X003419Y002230D01*
X003613Y002230D01*
X003613Y002180D01*
X003360Y002180D01*
X003243Y002063D01*
X003243Y001417D01*
X003360Y001300D01*
X003613Y001300D01*
X003613Y000350D01*
X000763Y000350D01*
X000763Y000467D02*
X003613Y000467D01*
X003613Y000626D02*
X000763Y000626D01*
X000763Y000784D02*
X003613Y000784D01*
X003613Y000943D02*
X000763Y000943D01*
X000763Y001101D02*
X003613Y001101D01*
X003613Y001260D02*
X000763Y001260D01*
X000763Y001418D02*
X002361Y001418D01*
X002388Y001407D02*
X002538Y001407D01*
X002676Y001464D01*
X002783Y001570D01*
X002840Y001709D01*
X002840Y001859D01*
X002783Y001998D01*
X002676Y002104D01*
X002538Y002161D01*
X002388Y002161D01*
X002249Y002104D01*
X002143Y001998D01*
X002086Y001859D01*
X002086Y001709D01*
X002143Y001570D01*
X002249Y001464D01*
X002388Y001407D01*
X002565Y001418D02*
X003243Y001418D01*
X003243Y001577D02*
X002785Y001577D01*
X002840Y001735D02*
X003243Y001735D01*
X003243Y001894D02*
X002826Y001894D01*
X002728Y002052D02*
X003243Y002052D01*
X003613Y002211D02*
X002056Y002211D01*
X002056Y002369D02*
X003267Y002369D01*
X003263Y002528D02*
X002056Y002528D01*
X002056Y002570D02*
X002056Y001918D01*
X002044Y001872D01*
X002020Y001831D01*
X001986Y001797D01*
X001945Y001774D01*
X001900Y001761D01*
X001523Y001761D01*
X001523Y002570D01*
X001523Y002730D01*
X002056Y002730D01*
X002056Y003382D01*
X002044Y003428D01*
X002020Y003469D01*
X001986Y003503D01*
X001945Y003526D01*
X001900Y003539D01*
X001523Y003539D01*
X001523Y002730D01*
X001363Y002730D01*
X001363Y003539D01*
X000986Y003539D01*
X000940Y003526D01*
X000899Y003503D01*
X000866Y003469D01*
X000842Y003428D01*
X000830Y003382D01*
X000830Y002730D01*
X001363Y002730D01*
X001363Y002570D01*
X001523Y002570D01*
X002056Y002570D01*
X002056Y002845D02*
X003263Y002845D01*
X003301Y003003D02*
X002056Y003003D01*
X002056Y003162D02*
X002333Y003162D01*
X002388Y003139D02*
X002538Y003139D01*
X002676Y003196D01*
X002783Y003302D01*
X002840Y003441D01*
X002840Y003591D01*
X002783Y003730D01*
X002676Y003836D01*
X002538Y003893D01*
X002388Y003893D01*
X002249Y003836D01*
X002143Y003730D01*
X002086Y003591D01*
X002086Y003441D01*
X002143Y003302D01*
X002249Y003196D01*
X002388Y003139D01*
X002592Y003162D02*
X003318Y003162D01*
X003243Y003320D02*
X002790Y003320D01*
X002840Y003479D02*
X003243Y003479D01*
X003243Y003637D02*
X002821Y003637D01*
X002717Y003796D02*
X003243Y003796D01*
X003314Y003954D02*
X000763Y003954D01*
X000763Y003796D02*
X002209Y003796D01*
X002105Y003637D02*
X000763Y003637D01*
X000763Y003479D02*
X000875Y003479D01*
X000830Y003320D02*
X000763Y003320D01*
X000763Y003162D02*
X000830Y003162D01*
X000830Y003003D02*
X000763Y003003D01*
X000763Y002845D02*
X000830Y002845D01*
X000763Y002686D02*
X001363Y002686D01*
X001523Y002686D02*
X003613Y002686D01*
X002198Y002052D02*
X002056Y002052D01*
X002049Y001894D02*
X002100Y001894D01*
X002086Y001735D02*
X000763Y001735D01*
X000866Y001831D02*
X000899Y001797D01*
X000940Y001774D01*
X000986Y001761D01*
X001363Y001761D01*
X001363Y002570D01*
X000830Y002570D01*
X000830Y001918D01*
X000842Y001872D01*
X000866Y001831D01*
X000836Y001894D02*
X000763Y001894D01*
X000763Y002052D02*
X000830Y002052D01*
X000830Y002211D02*
X000763Y002211D01*
X000763Y002369D02*
X000830Y002369D01*
X000830Y002528D02*
X000763Y002528D01*
X001363Y002528D02*
X001523Y002528D01*
X001523Y002369D02*
X001363Y002369D01*
X001363Y002211D02*
X001523Y002211D01*
X001523Y002052D02*
X001363Y002052D01*
X001363Y001894D02*
X001523Y001894D01*
X002140Y001577D02*
X000763Y001577D01*
X001363Y002845D02*
X001523Y002845D01*
X001523Y003003D02*
X001363Y003003D01*
X001363Y003162D02*
X001523Y003162D01*
X001523Y003320D02*
X001363Y003320D01*
X001363Y003479D02*
X001523Y003479D01*
X002011Y003479D02*
X002086Y003479D01*
X002056Y003320D02*
X002136Y003320D01*
X003098Y004113D02*
X000763Y004113D01*
X000763Y004271D02*
X003032Y004271D01*
X003032Y004430D02*
X000763Y004430D01*
X000763Y004588D02*
X003032Y004588D01*
X003032Y004671D02*
X003032Y004468D01*
X003410Y004468D01*
X003410Y004827D01*
X003188Y004827D01*
X003142Y004815D01*
X003101Y004791D01*
X003068Y004757D01*
X003044Y004716D01*
X003032Y004671D01*
X003061Y004747D02*
X000763Y004747D01*
X000763Y004905D02*
X003613Y004905D01*
X003447Y004747D02*
X003410Y004747D01*
X003410Y004588D02*
X003447Y004588D01*
X003447Y004430D02*
X003410Y004430D01*
X003410Y004271D02*
X003447Y004271D01*
X003447Y004113D02*
X003410Y004113D01*
M02*
