G75*
%MOIN*%
%OFA0B0*%
%FSLAX24Y24*%
%IPPOS*%
%LPD*%
%AMOC8*
5,1,8,0,0,1.08239X$1,22.5*
%
%ADD10C,0.0030*%
%ADD11C,0.0040*%
%ADD12C,0.0060*%
%ADD13R,0.0128X0.0167*%
%ADD14R,0.0138X0.0138*%
%ADD15C,0.0080*%
D10*
X005328Y000515D02*
X005513Y000515D01*
X005575Y000577D01*
X005575Y000700D01*
X005513Y000762D01*
X005328Y000762D01*
X005328Y000885D02*
X005328Y000515D01*
X005696Y000577D02*
X005696Y000700D01*
X005758Y000762D01*
X005881Y000762D01*
X005943Y000700D01*
X005943Y000577D01*
X005881Y000515D01*
X005758Y000515D01*
X005696Y000577D01*
X006064Y000762D02*
X006188Y000762D01*
X006126Y000824D02*
X006126Y000577D01*
X006188Y000515D01*
X006310Y000700D02*
X006557Y000700D01*
X006678Y000762D02*
X006802Y000762D01*
X006740Y000824D02*
X006740Y000577D01*
X006802Y000515D01*
X006924Y000515D02*
X006924Y000885D01*
X006986Y000762D02*
X007109Y000762D01*
X007171Y000700D01*
X007171Y000515D01*
X007292Y000577D02*
X007354Y000515D01*
X007477Y000515D01*
X007539Y000577D01*
X007539Y000700D01*
X007477Y000762D01*
X007354Y000762D01*
X007292Y000700D01*
X007292Y000577D01*
X006986Y000762D02*
X006924Y000700D01*
X007660Y000762D02*
X007660Y000577D01*
X007722Y000515D01*
X007907Y000515D01*
X007907Y000762D01*
X008029Y000700D02*
X008029Y000577D01*
X008091Y000515D01*
X008276Y000515D01*
X008276Y000453D02*
X008276Y000762D01*
X008091Y000762D01*
X008029Y000700D01*
X008397Y000700D02*
X008459Y000762D01*
X008582Y000762D01*
X008644Y000700D01*
X008644Y000515D01*
X008827Y000577D02*
X008889Y000515D01*
X008827Y000577D02*
X008827Y000824D01*
X008765Y000762D02*
X008889Y000762D01*
X009011Y000700D02*
X009073Y000762D01*
X009258Y000762D01*
X009196Y000638D02*
X009073Y000638D01*
X009011Y000700D01*
X009196Y000638D02*
X009258Y000577D01*
X009196Y000515D01*
X009011Y000515D01*
X009379Y000515D02*
X009441Y000515D01*
X009441Y000577D01*
X009379Y000577D01*
X009379Y000515D01*
X009563Y000577D02*
X009625Y000515D01*
X009810Y000515D01*
X009932Y000577D02*
X009993Y000515D01*
X010117Y000515D01*
X010179Y000577D01*
X010179Y000700D01*
X010117Y000762D01*
X009993Y000762D01*
X009932Y000700D01*
X009932Y000577D01*
X010300Y000515D02*
X010300Y000762D01*
X010362Y000762D01*
X010424Y000700D01*
X010485Y000762D01*
X010547Y000700D01*
X010547Y000515D01*
X010424Y000515D02*
X010424Y000700D01*
X009810Y000762D02*
X009625Y000762D01*
X009563Y000700D01*
X009563Y000577D01*
X008397Y000515D02*
X008397Y000885D01*
X008276Y000453D02*
X008214Y000392D01*
X008152Y000392D01*
X004886Y003915D02*
X004948Y003977D01*
X004948Y004100D01*
X004886Y004162D01*
X004824Y004162D01*
X004763Y004100D01*
X004763Y004038D01*
X004763Y004100D02*
X004701Y004162D01*
X004639Y004162D01*
X004578Y004100D01*
X004578Y003977D01*
X004639Y003915D01*
X004578Y004283D02*
X004824Y004283D01*
X004948Y004407D01*
X004824Y004530D01*
X004578Y004530D01*
X004639Y004652D02*
X004578Y004713D01*
X004578Y004837D01*
X004639Y004899D01*
X004701Y004899D01*
X004763Y004837D01*
X004824Y004899D01*
X004886Y004899D01*
X004948Y004837D01*
X004948Y004713D01*
X004886Y004652D01*
X004763Y004775D02*
X004763Y004837D01*
X008178Y004730D02*
X008486Y004730D01*
X008548Y004668D01*
X008548Y004545D01*
X008486Y004483D01*
X008178Y004483D01*
X008178Y004362D02*
X008424Y004362D01*
X008548Y004238D01*
X008424Y004115D01*
X008178Y004115D01*
X008978Y004165D02*
X008978Y004455D01*
X009123Y004455D01*
X009171Y004407D01*
X009171Y004310D01*
X009123Y004262D01*
X008978Y004262D01*
X009075Y004262D02*
X009171Y004165D01*
X009272Y004213D02*
X009466Y004407D01*
X009466Y004213D01*
X009418Y004165D01*
X009321Y004165D01*
X009272Y004213D01*
X009272Y004407D01*
X009321Y004455D01*
X009418Y004455D01*
X009466Y004407D01*
X009714Y004455D02*
X009714Y004310D01*
X009811Y004358D01*
X009860Y004358D01*
X009908Y004310D01*
X009908Y004213D01*
X009860Y004165D01*
X009763Y004165D01*
X009714Y004213D01*
X009616Y004213D02*
X009616Y004165D01*
X009567Y004165D01*
X009567Y004213D01*
X009616Y004213D01*
X009714Y004455D02*
X009908Y004455D01*
D11*
X009353Y003330D02*
X009199Y003330D01*
X009122Y003254D01*
X009122Y002947D01*
X009199Y002870D01*
X009353Y002870D01*
X009429Y002947D01*
X008969Y002947D02*
X008892Y002870D01*
X008739Y002870D01*
X008662Y002947D01*
X008662Y003254D01*
X008739Y003330D01*
X008892Y003330D01*
X008969Y003254D01*
X009353Y003330D02*
X009429Y003254D01*
X008509Y003330D02*
X008509Y003023D01*
X008355Y002870D01*
X008202Y003023D01*
X008202Y003330D01*
X008278Y002330D02*
X008202Y002254D01*
X008202Y001947D01*
X008278Y001870D01*
X008432Y001870D01*
X008509Y001947D01*
X008509Y002100D01*
X008355Y002100D01*
X008509Y002254D02*
X008432Y002330D01*
X008278Y002330D01*
X008662Y002330D02*
X008969Y001870D01*
X008969Y002330D01*
X009122Y002330D02*
X009353Y002330D01*
X009429Y002254D01*
X009429Y001947D01*
X009353Y001870D01*
X009122Y001870D01*
X009122Y002330D01*
X008662Y002330D02*
X008662Y001870D01*
X008425Y001480D02*
X008195Y001480D01*
X008195Y001020D01*
X008195Y001173D02*
X008425Y001173D01*
X008502Y001250D01*
X008502Y001404D01*
X008425Y001480D01*
X008656Y001250D02*
X008732Y001327D01*
X008886Y001327D01*
X008963Y001250D01*
X008963Y001097D01*
X008886Y001020D01*
X008732Y001020D01*
X008656Y001097D01*
X008656Y001250D01*
X009116Y001327D02*
X009116Y001097D01*
X009193Y001020D01*
X009269Y001097D01*
X009346Y001020D01*
X009423Y001097D01*
X009423Y001327D01*
X009576Y001250D02*
X009653Y001327D01*
X009807Y001327D01*
X009883Y001250D01*
X009883Y001173D01*
X009576Y001173D01*
X009576Y001097D02*
X009576Y001250D01*
X009576Y001097D02*
X009653Y001020D01*
X009807Y001020D01*
X010037Y001020D02*
X010037Y001327D01*
X010190Y001327D02*
X010267Y001327D01*
X010190Y001327D02*
X010037Y001173D01*
X007581Y001173D02*
X007274Y001173D01*
X007274Y001097D02*
X007274Y001250D01*
X007351Y001327D01*
X007505Y001327D01*
X007581Y001250D01*
X007581Y001173D01*
X007505Y001020D02*
X007351Y001020D01*
X007274Y001097D01*
X007121Y001173D02*
X006814Y001173D01*
X006814Y001097D02*
X006814Y001250D01*
X006891Y001327D01*
X007044Y001327D01*
X007121Y001250D01*
X007121Y001173D01*
X007044Y001020D02*
X006891Y001020D01*
X006814Y001097D01*
X006661Y001020D02*
X006354Y001020D01*
X006354Y001097D01*
X006661Y001404D01*
X006661Y001480D01*
X006354Y001480D01*
X006200Y001250D02*
X006123Y001327D01*
X005970Y001327D01*
X005893Y001250D01*
X005893Y001097D01*
X005970Y001020D01*
X006123Y001020D01*
X006200Y001173D02*
X005893Y001173D01*
X005740Y001173D02*
X005433Y001173D01*
X005433Y001097D02*
X005433Y001250D01*
X005510Y001327D01*
X005663Y001327D01*
X005740Y001250D01*
X005740Y001173D01*
X005663Y001020D02*
X005510Y001020D01*
X005433Y001097D01*
X006200Y001173D02*
X006200Y001250D01*
D12*
X006313Y003900D02*
X006063Y004150D01*
X005813Y003900D01*
X005313Y003900D01*
X005063Y004150D01*
X005063Y004650D01*
X005313Y004900D01*
X005813Y004900D01*
X006063Y004650D01*
X006313Y004900D01*
X006813Y004900D01*
X007063Y004650D01*
X007313Y004900D01*
X007813Y004900D01*
X008063Y004650D01*
X008063Y004150D01*
X007813Y003900D01*
X007313Y003900D01*
X007063Y004150D01*
X006813Y003900D01*
X006313Y003900D01*
X006063Y004150D02*
X006063Y004650D01*
X007063Y004650D02*
X007063Y004150D01*
D13*
X005084Y002429D03*
X004542Y002429D03*
D14*
X004813Y002581D03*
D15*
X002778Y001154D02*
X001951Y001154D01*
X003762Y001430D02*
X003762Y001784D01*
X003762Y003516D02*
X003762Y003870D01*
X002778Y004146D02*
X001951Y004146D01*
M02*
