G75*
%MOIN*%
%OFA0B0*%
%FSLAX24Y24*%
%IPPOS*%
%LPD*%
%AMOC8*
5,1,8,0,0,1.08239X$1,22.5*
%
%ADD10R,0.0880X0.0480*%
%ADD11R,0.0866X0.1417*%
%ADD12OC8,0.0600*%
%ADD13R,0.0433X0.0394*%
%ADD14R,0.0630X0.0709*%
%ADD15C,0.0240*%
%ADD16C,0.0100*%
%ADD17C,0.0270*%
D10*
X003883Y001740D03*
X003883Y002650D03*
X003883Y003560D03*
D11*
X001443Y002650D03*
D12*
X005563Y004400D03*
X006563Y004400D03*
X007563Y004400D03*
X006063Y003150D03*
X006063Y002150D03*
X010063Y002150D03*
X010063Y003150D03*
D13*
X004197Y004550D03*
X003528Y004550D03*
X003328Y000950D03*
X003997Y000950D03*
D14*
X004762Y000950D03*
X005864Y000950D03*
D15*
X004762Y000950D02*
X003997Y000950D01*
X003997Y001625D01*
X003883Y001740D01*
X004602Y001740D01*
X005163Y002301D01*
X005163Y004000D01*
X005563Y004400D01*
X006263Y003150D02*
X007513Y004400D01*
X007563Y004400D01*
X006263Y003150D02*
X006063Y003150D01*
X004513Y002650D02*
X003883Y002650D01*
D16*
X000733Y000320D02*
X000733Y004980D01*
X003763Y004980D01*
X003763Y004897D01*
X003577Y004897D01*
X003577Y004598D01*
X003480Y004598D01*
X003480Y004502D01*
X003162Y004502D01*
X003162Y004333D01*
X003172Y004295D01*
X003192Y004261D01*
X003220Y004233D01*
X003254Y004213D01*
X003263Y004211D01*
X003263Y003250D01*
X003273Y003250D01*
X003273Y003250D01*
X003372Y003150D01*
X003863Y003150D01*
X003863Y002700D01*
X003833Y002700D01*
X003833Y003040D01*
X003423Y003040D01*
X003385Y003030D01*
X003351Y003010D01*
X003323Y002982D01*
X003303Y002948D01*
X003293Y002910D01*
X003293Y002700D01*
X003833Y002700D01*
X003833Y002600D01*
X003863Y002600D01*
X003863Y002150D01*
X003372Y002150D01*
X003273Y002050D01*
X003273Y001706D01*
X002663Y001350D01*
X002663Y000320D01*
X000733Y000320D01*
X000733Y000347D02*
X002663Y000347D01*
X002663Y000446D02*
X000733Y000446D01*
X000733Y000544D02*
X002663Y000544D01*
X002663Y000643D02*
X000733Y000643D01*
X000733Y000741D02*
X002663Y000741D01*
X002663Y000840D02*
X000733Y000840D01*
X000733Y000938D02*
X002663Y000938D01*
X002663Y001037D02*
X000733Y001037D01*
X000733Y001135D02*
X002663Y001135D01*
X002663Y001234D02*
X000733Y001234D01*
X000733Y001332D02*
X002663Y001332D01*
X002801Y001431D02*
X000733Y001431D01*
X000733Y001529D02*
X002227Y001529D01*
X002266Y001490D02*
X002394Y001437D01*
X002532Y001437D01*
X002659Y001490D01*
X002757Y001587D01*
X002810Y001715D01*
X002810Y001853D01*
X002757Y001981D01*
X002659Y002078D01*
X002532Y002131D01*
X002394Y002131D01*
X002266Y002078D01*
X002169Y001981D01*
X002116Y001853D01*
X002116Y001715D01*
X002169Y001587D01*
X002266Y001490D01*
X002152Y001628D02*
X000733Y001628D01*
X000733Y001726D02*
X002116Y001726D01*
X002116Y001825D02*
X001971Y001825D01*
X001968Y001821D02*
X001996Y001849D01*
X002016Y001883D01*
X002026Y001922D01*
X002026Y002600D01*
X001493Y002600D01*
X001493Y002700D01*
X002026Y002700D01*
X002026Y003378D01*
X002016Y003417D01*
X001996Y003451D01*
X001968Y003479D01*
X001934Y003498D01*
X001896Y003509D01*
X001493Y003509D01*
X001493Y002700D01*
X001393Y002700D01*
X001393Y003509D01*
X000990Y003509D01*
X000952Y003498D01*
X000918Y003479D01*
X000890Y003451D01*
X000870Y003417D01*
X000860Y003378D01*
X000860Y002700D01*
X001393Y002700D01*
X001393Y002600D01*
X001493Y002600D01*
X001493Y001791D01*
X001896Y001791D01*
X001934Y001802D01*
X001968Y001821D01*
X002026Y001923D02*
X002145Y001923D01*
X002210Y002022D02*
X002026Y002022D01*
X002026Y002120D02*
X002367Y002120D01*
X002558Y002120D02*
X003342Y002120D01*
X003273Y002022D02*
X002716Y002022D01*
X002781Y001923D02*
X003273Y001923D01*
X003273Y001825D02*
X002810Y001825D01*
X002810Y001726D02*
X003273Y001726D01*
X003139Y001628D02*
X002774Y001628D01*
X002699Y001529D02*
X002970Y001529D01*
X003237Y001431D02*
X003300Y001431D01*
X003293Y001438D02*
X003381Y001350D01*
X003727Y001350D01*
X003727Y001297D01*
X003719Y001297D01*
X003663Y001241D01*
X003637Y001267D01*
X003603Y001287D01*
X003564Y001297D01*
X003377Y001297D01*
X003377Y000998D01*
X003280Y000998D01*
X003280Y000902D01*
X002962Y000902D01*
X002962Y000733D01*
X002972Y000695D01*
X002992Y000661D01*
X003020Y000633D01*
X003054Y000613D01*
X003092Y000603D01*
X003280Y000603D01*
X003280Y000902D01*
X003377Y000902D01*
X003377Y000603D01*
X003564Y000603D01*
X003603Y000613D01*
X003637Y000633D01*
X003663Y000659D01*
X003719Y000603D01*
X004276Y000603D01*
X004297Y000624D01*
X004297Y000534D01*
X004385Y000446D01*
X005139Y000446D01*
X005227Y000534D01*
X005227Y001366D01*
X005139Y001454D01*
X004473Y001454D01*
X004473Y001470D01*
X004655Y001470D01*
X004755Y001511D01*
X005392Y002148D01*
X005433Y002247D01*
X005433Y003888D01*
X005495Y003950D01*
X005749Y003950D01*
X006013Y004214D01*
X006013Y004586D01*
X005749Y004850D01*
X005376Y004850D01*
X005113Y004586D01*
X005113Y004332D01*
X005010Y004229D01*
X004934Y004153D01*
X004893Y004054D01*
X004893Y002413D01*
X004490Y002010D01*
X004473Y002010D01*
X004473Y002042D01*
X004385Y002130D01*
X004083Y002130D01*
X004083Y002260D01*
X004385Y002260D01*
X004473Y002348D01*
X004473Y002365D01*
X004570Y002365D01*
X004674Y002408D01*
X004754Y002489D01*
X004798Y002593D01*
X004798Y002707D01*
X004754Y002811D01*
X004674Y002892D01*
X004570Y002935D01*
X004473Y002935D01*
X004473Y002952D01*
X004385Y003040D01*
X004083Y003040D01*
X004083Y003170D01*
X004343Y003170D01*
X004381Y003180D01*
X004415Y003200D01*
X004443Y003228D01*
X004463Y003262D01*
X004473Y003300D01*
X004473Y003510D01*
X003933Y003510D01*
X003933Y003610D01*
X004473Y003610D01*
X004473Y003820D01*
X004463Y003858D01*
X004443Y003892D01*
X004415Y003920D01*
X004381Y003940D01*
X004343Y003950D01*
X003933Y003950D01*
X003933Y003610D01*
X003833Y003610D01*
X003833Y003950D01*
X003483Y003950D01*
X003483Y004203D01*
X003807Y004203D01*
X003834Y004230D01*
X003854Y004230D01*
X003873Y004249D01*
X003889Y004233D01*
X003923Y004213D01*
X003961Y004203D01*
X004149Y004203D01*
X004149Y004502D01*
X004246Y004502D01*
X004246Y004598D01*
X004564Y004598D01*
X004564Y004767D01*
X004554Y004805D01*
X004534Y004839D01*
X004506Y004867D01*
X004472Y004887D01*
X004434Y004897D01*
X004246Y004897D01*
X004246Y004598D01*
X004149Y004598D01*
X004149Y004897D01*
X003983Y004897D01*
X003983Y005000D01*
X010163Y005000D01*
X010251Y004991D01*
X010413Y004924D01*
X010537Y004800D01*
X010604Y004638D01*
X010613Y004550D01*
X010613Y000750D01*
X010604Y000662D01*
X010537Y000500D01*
X010413Y000376D01*
X010251Y000309D01*
X010163Y000300D01*
X002883Y000300D01*
X002883Y001224D01*
X003293Y001463D01*
X003293Y001438D01*
X003069Y001332D02*
X003727Y001332D01*
X003377Y001234D02*
X003280Y001234D01*
X003280Y001297D02*
X003092Y001297D01*
X003054Y001287D01*
X003020Y001267D01*
X002992Y001239D01*
X002972Y001205D01*
X002962Y001167D01*
X002962Y000998D01*
X003280Y000998D01*
X003280Y001297D01*
X003280Y001135D02*
X003377Y001135D01*
X003377Y001037D02*
X003280Y001037D01*
X003280Y000938D02*
X002883Y000938D01*
X002883Y000840D02*
X002962Y000840D01*
X002962Y000741D02*
X002883Y000741D01*
X002883Y000643D02*
X003010Y000643D01*
X002883Y000544D02*
X004297Y000544D01*
X003679Y000643D02*
X003646Y000643D01*
X003377Y000643D02*
X003280Y000643D01*
X003280Y000741D02*
X003377Y000741D01*
X003377Y000840D02*
X003280Y000840D01*
X002962Y001037D02*
X002883Y001037D01*
X002883Y001135D02*
X002962Y001135D01*
X002988Y001234D02*
X002900Y001234D01*
X001493Y001825D02*
X001393Y001825D01*
X001393Y001791D02*
X001393Y002600D01*
X000860Y002600D01*
X000860Y001922D01*
X000870Y001883D01*
X000890Y001849D01*
X000918Y001821D01*
X000952Y001802D01*
X000990Y001791D01*
X001393Y001791D01*
X001393Y001923D02*
X001493Y001923D01*
X001493Y002022D02*
X001393Y002022D01*
X001393Y002120D02*
X001493Y002120D01*
X001493Y002219D02*
X001393Y002219D01*
X001393Y002317D02*
X001493Y002317D01*
X001493Y002416D02*
X001393Y002416D01*
X001393Y002514D02*
X001493Y002514D01*
X001493Y002613D02*
X003833Y002613D01*
X003833Y002600D02*
X003293Y002600D01*
X003293Y002390D01*
X003303Y002352D01*
X003323Y002318D01*
X003351Y002290D01*
X003385Y002270D01*
X003423Y002260D01*
X003833Y002260D01*
X003833Y002600D01*
X003833Y002514D02*
X003863Y002514D01*
X003863Y002416D02*
X003833Y002416D01*
X003833Y002317D02*
X003863Y002317D01*
X003863Y002219D02*
X002026Y002219D01*
X002026Y002317D02*
X003324Y002317D01*
X003293Y002416D02*
X002026Y002416D01*
X002026Y002514D02*
X003293Y002514D01*
X003293Y002711D02*
X002026Y002711D01*
X002026Y002810D02*
X003293Y002810D01*
X003293Y002908D02*
X002026Y002908D01*
X002026Y003007D02*
X003347Y003007D01*
X003319Y003204D02*
X002615Y003204D01*
X002659Y003222D02*
X002532Y003169D01*
X002394Y003169D01*
X002266Y003222D01*
X002169Y003319D01*
X002116Y003447D01*
X002116Y003585D01*
X002169Y003713D01*
X002266Y003810D01*
X002394Y003863D01*
X002532Y003863D01*
X002659Y003810D01*
X002757Y003713D01*
X002810Y003585D01*
X002810Y003447D01*
X002757Y003319D01*
X002659Y003222D01*
X002740Y003302D02*
X003263Y003302D01*
X003263Y003401D02*
X002791Y003401D01*
X002810Y003499D02*
X003263Y003499D01*
X003263Y003598D02*
X002805Y003598D01*
X002764Y003696D02*
X003263Y003696D01*
X003263Y003795D02*
X002675Y003795D01*
X002250Y003795D02*
X000733Y003795D01*
X000733Y003893D02*
X003263Y003893D01*
X003263Y003992D02*
X000733Y003992D01*
X000733Y004090D02*
X003263Y004090D01*
X003263Y004189D02*
X000733Y004189D01*
X000733Y004287D02*
X003177Y004287D01*
X003162Y004386D02*
X000733Y004386D01*
X000733Y004484D02*
X003162Y004484D01*
X003162Y004598D02*
X003480Y004598D01*
X003480Y004897D01*
X003292Y004897D01*
X003254Y004887D01*
X003220Y004867D01*
X003192Y004839D01*
X003172Y004805D01*
X003162Y004767D01*
X003162Y004598D01*
X003162Y004681D02*
X000733Y004681D01*
X000733Y004583D02*
X003480Y004583D01*
X003480Y004681D02*
X003577Y004681D01*
X003577Y004780D02*
X003480Y004780D01*
X003480Y004878D02*
X003577Y004878D01*
X003763Y004977D02*
X000733Y004977D01*
X000733Y004878D02*
X003239Y004878D01*
X003165Y004780D02*
X000733Y004780D01*
X000733Y003696D02*
X002162Y003696D01*
X002121Y003598D02*
X000733Y003598D01*
X000733Y003499D02*
X000954Y003499D01*
X000866Y003401D02*
X000733Y003401D01*
X000733Y003302D02*
X000860Y003302D01*
X000860Y003204D02*
X000733Y003204D01*
X000733Y003105D02*
X000860Y003105D01*
X000860Y003007D02*
X000733Y003007D01*
X000733Y002908D02*
X000860Y002908D01*
X000860Y002810D02*
X000733Y002810D01*
X000733Y002711D02*
X000860Y002711D01*
X000733Y002613D02*
X001393Y002613D01*
X001393Y002711D02*
X001493Y002711D01*
X001493Y002810D02*
X001393Y002810D01*
X001393Y002908D02*
X001493Y002908D01*
X001493Y003007D02*
X001393Y003007D01*
X001393Y003105D02*
X001493Y003105D01*
X001493Y003204D02*
X001393Y003204D01*
X001393Y003302D02*
X001493Y003302D01*
X001493Y003401D02*
X001393Y003401D01*
X001393Y003499D02*
X001493Y003499D01*
X001932Y003499D02*
X002116Y003499D01*
X002135Y003401D02*
X002020Y003401D01*
X002026Y003302D02*
X002186Y003302D01*
X002310Y003204D02*
X002026Y003204D01*
X002026Y003105D02*
X003863Y003105D01*
X003863Y003007D02*
X003833Y003007D01*
X003833Y002908D02*
X003863Y002908D01*
X003863Y002810D02*
X003833Y002810D01*
X003833Y002711D02*
X003863Y002711D01*
X004418Y003007D02*
X004893Y003007D01*
X004893Y003105D02*
X004083Y003105D01*
X004418Y003204D02*
X004893Y003204D01*
X004893Y003302D02*
X004473Y003302D01*
X004473Y003401D02*
X004893Y003401D01*
X004893Y003499D02*
X004473Y003499D01*
X004473Y003696D02*
X004893Y003696D01*
X004893Y003598D02*
X003933Y003598D01*
X003933Y003696D02*
X003833Y003696D01*
X003833Y003795D02*
X003933Y003795D01*
X003933Y003893D02*
X003833Y003893D01*
X003483Y003992D02*
X004893Y003992D01*
X004893Y003893D02*
X004442Y003893D01*
X004473Y003795D02*
X004893Y003795D01*
X005433Y003795D02*
X006526Y003795D01*
X006624Y003893D02*
X005438Y003893D01*
X005433Y003696D02*
X006427Y003696D01*
X006329Y003598D02*
X006252Y003598D01*
X006249Y003600D02*
X005876Y003600D01*
X005613Y003336D01*
X005613Y002964D01*
X005876Y002700D01*
X006249Y002700D01*
X006513Y002964D01*
X006513Y003018D01*
X007445Y003950D01*
X007749Y003950D01*
X008013Y004214D01*
X008013Y004586D01*
X007749Y004850D01*
X007376Y004850D01*
X007113Y004586D01*
X007113Y004382D01*
X007013Y004282D01*
X007013Y004586D01*
X006749Y004850D01*
X006376Y004850D01*
X006113Y004586D01*
X006113Y004214D01*
X006376Y003950D01*
X006681Y003950D01*
X006290Y003559D01*
X006249Y003600D01*
X005874Y003598D02*
X005433Y003598D01*
X005433Y003499D02*
X005775Y003499D01*
X005677Y003401D02*
X005433Y003401D01*
X005433Y003302D02*
X005613Y003302D01*
X005613Y003204D02*
X005433Y003204D01*
X005433Y003105D02*
X005613Y003105D01*
X005613Y003007D02*
X005433Y003007D01*
X005433Y002908D02*
X005668Y002908D01*
X005767Y002810D02*
X005433Y002810D01*
X005433Y002711D02*
X005865Y002711D01*
X005876Y002600D02*
X005613Y002336D01*
X005613Y002200D01*
X006013Y002200D01*
X006013Y002600D01*
X005876Y002600D01*
X005790Y002514D02*
X005433Y002514D01*
X005433Y002416D02*
X005692Y002416D01*
X005613Y002317D02*
X005433Y002317D01*
X005421Y002219D02*
X005613Y002219D01*
X005613Y002100D02*
X005613Y001964D01*
X005876Y001700D01*
X006013Y001700D01*
X006013Y002100D01*
X006113Y002100D01*
X006113Y002200D01*
X006513Y002200D01*
X006513Y002336D01*
X006249Y002600D01*
X006113Y002600D01*
X006113Y002200D01*
X006013Y002200D01*
X006013Y002100D01*
X005613Y002100D01*
X005613Y002022D02*
X005265Y002022D01*
X005363Y002120D02*
X006013Y002120D01*
X006013Y002219D02*
X006113Y002219D01*
X006113Y002120D02*
X010013Y002120D01*
X010013Y002100D02*
X009613Y002100D01*
X009613Y001964D01*
X009876Y001700D01*
X010013Y001700D01*
X010013Y002100D01*
X010113Y002100D01*
X010113Y002200D01*
X010513Y002200D01*
X010513Y002336D01*
X010249Y002600D01*
X010113Y002600D01*
X010113Y002200D01*
X010013Y002200D01*
X010013Y002600D01*
X009876Y002600D01*
X009613Y002336D01*
X009613Y002200D01*
X010013Y002200D01*
X010013Y002100D01*
X010013Y002022D02*
X010113Y002022D01*
X010113Y002100D02*
X010113Y001700D01*
X010249Y001700D01*
X010513Y001964D01*
X010513Y002100D01*
X010113Y002100D01*
X010113Y002120D02*
X010613Y002120D01*
X010613Y002219D02*
X010513Y002219D01*
X010513Y002317D02*
X010613Y002317D01*
X010613Y002416D02*
X010434Y002416D01*
X010335Y002514D02*
X010613Y002514D01*
X010613Y002613D02*
X005433Y002613D01*
X004893Y002613D02*
X004798Y002613D01*
X004796Y002711D02*
X004893Y002711D01*
X004893Y002810D02*
X004755Y002810D01*
X004635Y002908D02*
X004893Y002908D01*
X004893Y002514D02*
X004765Y002514D01*
X004681Y002416D02*
X004893Y002416D01*
X004797Y002317D02*
X004442Y002317D01*
X004395Y002120D02*
X004600Y002120D01*
X004698Y002219D02*
X004083Y002219D01*
X004473Y002022D02*
X004501Y002022D01*
X005068Y001825D02*
X005752Y001825D01*
X005653Y001923D02*
X005166Y001923D01*
X004969Y001726D02*
X005850Y001726D01*
X006013Y001726D02*
X006113Y001726D01*
X006113Y001700D02*
X006249Y001700D01*
X006513Y001964D01*
X006513Y002100D01*
X006113Y002100D01*
X006113Y001700D01*
X006275Y001726D02*
X009850Y001726D01*
X010013Y001726D02*
X010113Y001726D01*
X010113Y001825D02*
X010013Y001825D01*
X010013Y001923D02*
X010113Y001923D01*
X010374Y001825D02*
X010613Y001825D01*
X010613Y001923D02*
X010472Y001923D01*
X010513Y002022D02*
X010613Y002022D01*
X010113Y002219D02*
X010013Y002219D01*
X010013Y002317D02*
X010113Y002317D01*
X010113Y002416D02*
X010013Y002416D01*
X010013Y002514D02*
X010113Y002514D01*
X010249Y002700D02*
X009876Y002700D01*
X009613Y002964D01*
X009613Y003336D01*
X009876Y003600D01*
X010249Y003600D01*
X010513Y003336D01*
X010513Y002964D01*
X010249Y002700D01*
X010260Y002711D02*
X010613Y002711D01*
X010613Y002810D02*
X010359Y002810D01*
X010457Y002908D02*
X010613Y002908D01*
X010613Y003007D02*
X010513Y003007D01*
X010513Y003105D02*
X010613Y003105D01*
X010613Y003204D02*
X010513Y003204D01*
X010513Y003302D02*
X010613Y003302D01*
X010613Y003401D02*
X010449Y003401D01*
X010350Y003499D02*
X010613Y003499D01*
X010613Y003598D02*
X010252Y003598D01*
X009874Y003598D02*
X007092Y003598D01*
X006994Y003499D02*
X009775Y003499D01*
X009677Y003401D02*
X006895Y003401D01*
X006797Y003302D02*
X009613Y003302D01*
X009613Y003204D02*
X006698Y003204D01*
X006600Y003105D02*
X009613Y003105D01*
X009613Y003007D02*
X006513Y003007D01*
X006457Y002908D02*
X009668Y002908D01*
X009767Y002810D02*
X006359Y002810D01*
X006260Y002711D02*
X009865Y002711D01*
X009790Y002514D02*
X006335Y002514D01*
X006434Y002416D02*
X009692Y002416D01*
X009613Y002317D02*
X006513Y002317D01*
X006513Y002219D02*
X009613Y002219D01*
X009613Y002022D02*
X006513Y002022D01*
X006472Y001923D02*
X009653Y001923D01*
X009752Y001825D02*
X006374Y001825D01*
X006113Y001825D02*
X006013Y001825D01*
X006013Y001923D02*
X006113Y001923D01*
X006113Y002022D02*
X006013Y002022D01*
X006013Y002317D02*
X006113Y002317D01*
X006113Y002416D02*
X006013Y002416D01*
X006013Y002514D02*
X006113Y002514D01*
X004871Y001628D02*
X010613Y001628D01*
X010613Y001726D02*
X010275Y001726D01*
X010613Y001529D02*
X004772Y001529D01*
X005163Y001431D02*
X005468Y001431D01*
X005457Y001424D02*
X005491Y001444D01*
X005529Y001454D01*
X005814Y001454D01*
X005814Y001000D01*
X005814Y000900D01*
X005399Y000900D01*
X005399Y000576D01*
X005409Y000538D01*
X005429Y000504D01*
X005457Y000476D01*
X005491Y000456D01*
X005529Y000446D01*
X005814Y000446D01*
X005814Y000900D01*
X005914Y000900D01*
X005914Y000446D01*
X006199Y000446D01*
X006237Y000456D01*
X006271Y000476D01*
X006299Y000504D01*
X006319Y000538D01*
X006329Y000576D01*
X006329Y000900D01*
X005914Y000900D01*
X005914Y001000D01*
X005814Y001000D01*
X005399Y001000D01*
X005399Y001324D01*
X005409Y001362D01*
X005429Y001396D01*
X005457Y001424D01*
X005401Y001332D02*
X005227Y001332D01*
X005227Y001234D02*
X005399Y001234D01*
X005399Y001135D02*
X005227Y001135D01*
X005227Y001037D02*
X005399Y001037D01*
X005227Y000938D02*
X005814Y000938D01*
X005914Y000938D02*
X010613Y000938D01*
X010613Y000840D02*
X006329Y000840D01*
X006329Y000741D02*
X010612Y000741D01*
X010596Y000643D02*
X006329Y000643D01*
X006320Y000544D02*
X010555Y000544D01*
X010483Y000446D02*
X002883Y000446D01*
X002883Y000347D02*
X010343Y000347D01*
X010613Y001037D02*
X006329Y001037D01*
X006329Y001000D02*
X006329Y001324D01*
X006319Y001362D01*
X006299Y001396D01*
X006271Y001424D01*
X006237Y001444D01*
X006199Y001454D01*
X005914Y001454D01*
X005914Y001000D01*
X006329Y001000D01*
X006329Y001135D02*
X010613Y001135D01*
X010613Y001234D02*
X006329Y001234D01*
X006327Y001332D02*
X010613Y001332D01*
X010613Y001431D02*
X006260Y001431D01*
X005914Y001431D02*
X005814Y001431D01*
X005814Y001332D02*
X005914Y001332D01*
X005914Y001234D02*
X005814Y001234D01*
X005814Y001135D02*
X005914Y001135D01*
X005914Y001037D02*
X005814Y001037D01*
X005814Y000840D02*
X005914Y000840D01*
X005914Y000741D02*
X005814Y000741D01*
X005814Y000643D02*
X005914Y000643D01*
X005914Y000544D02*
X005814Y000544D01*
X005408Y000544D02*
X005227Y000544D01*
X005227Y000643D02*
X005399Y000643D01*
X005399Y000741D02*
X005227Y000741D01*
X005227Y000840D02*
X005399Y000840D01*
X000914Y001825D02*
X000733Y001825D01*
X000733Y001923D02*
X000860Y001923D01*
X000860Y002022D02*
X000733Y002022D01*
X000733Y002120D02*
X000860Y002120D01*
X000860Y002219D02*
X000733Y002219D01*
X000733Y002317D02*
X000860Y002317D01*
X000860Y002416D02*
X000733Y002416D01*
X000733Y002514D02*
X000860Y002514D01*
X003483Y004090D02*
X004908Y004090D01*
X004970Y004189D02*
X003483Y004189D01*
X004149Y004287D02*
X004246Y004287D01*
X004246Y004203D02*
X004434Y004203D01*
X004472Y004213D01*
X004506Y004233D01*
X004534Y004261D01*
X004554Y004295D01*
X004564Y004333D01*
X004564Y004502D01*
X004246Y004502D01*
X004246Y004203D01*
X004246Y004386D02*
X004149Y004386D01*
X004149Y004484D02*
X004246Y004484D01*
X004246Y004583D02*
X005113Y004583D01*
X005113Y004484D02*
X004564Y004484D01*
X004564Y004386D02*
X005113Y004386D01*
X005068Y004287D02*
X004549Y004287D01*
X004564Y004681D02*
X005207Y004681D01*
X005306Y004780D02*
X004561Y004780D01*
X004487Y004878D02*
X010459Y004878D01*
X010286Y004977D02*
X003983Y004977D01*
X004149Y004878D02*
X004246Y004878D01*
X004246Y004780D02*
X004149Y004780D01*
X004149Y004681D02*
X004246Y004681D01*
X005820Y004780D02*
X006306Y004780D01*
X006207Y004681D02*
X005918Y004681D01*
X006013Y004583D02*
X006113Y004583D01*
X006113Y004484D02*
X006013Y004484D01*
X006013Y004386D02*
X006113Y004386D01*
X006113Y004287D02*
X006013Y004287D01*
X005988Y004189D02*
X006138Y004189D01*
X006236Y004090D02*
X005889Y004090D01*
X005791Y003992D02*
X006335Y003992D01*
X007013Y004287D02*
X007018Y004287D01*
X007013Y004386D02*
X007113Y004386D01*
X007113Y004484D02*
X007013Y004484D01*
X007013Y004583D02*
X007113Y004583D01*
X007207Y004681D02*
X006918Y004681D01*
X006820Y004780D02*
X007306Y004780D01*
X007820Y004780D02*
X010545Y004780D01*
X010586Y004681D02*
X007918Y004681D01*
X008013Y004583D02*
X010610Y004583D01*
X010613Y004484D02*
X008013Y004484D01*
X008013Y004386D02*
X010613Y004386D01*
X010613Y004287D02*
X008013Y004287D01*
X007988Y004189D02*
X010613Y004189D01*
X010613Y004090D02*
X007889Y004090D01*
X007791Y003992D02*
X010613Y003992D01*
X010613Y003893D02*
X007388Y003893D01*
X007289Y003795D02*
X010613Y003795D01*
X010613Y003696D02*
X007191Y003696D01*
D17*
X004513Y002650D03*
X002413Y002650D03*
X002013Y002450D03*
X001613Y002450D03*
X001213Y002450D03*
X000813Y002450D03*
X000813Y002850D03*
X001213Y002850D03*
X001613Y002850D03*
X002013Y002850D03*
X002413Y003050D03*
X002013Y003250D03*
X001613Y003250D03*
X001213Y003250D03*
X000813Y003250D03*
X000813Y003650D03*
X001213Y003650D03*
X001613Y003650D03*
X002013Y003650D03*
X002413Y002250D03*
X002013Y002050D03*
X001613Y002050D03*
X001213Y002050D03*
X000813Y002050D03*
X000813Y001650D03*
X001213Y001650D03*
X001613Y001650D03*
X002013Y001650D03*
M02*
