G75*
%MOIN*%
%OFA0B0*%
%FSLAX24Y24*%
%IPPOS*%
%LPD*%
%AMOC8*
5,1,8,0,0,1.08239X$1,22.5*
%
%ADD10C,0.0030*%
%ADD11C,0.0040*%
%ADD12C,0.0060*%
%ADD13R,0.0128X0.0167*%
%ADD14R,0.0138X0.0138*%
%ADD15C,0.0080*%
D10*
X002743Y000366D02*
X002928Y000366D01*
X002989Y000427D01*
X002989Y000551D01*
X002928Y000612D01*
X002743Y000612D01*
X002743Y000736D02*
X002743Y000366D01*
X003111Y000427D02*
X003111Y000551D01*
X003173Y000612D01*
X003296Y000612D01*
X003358Y000551D01*
X003358Y000427D01*
X003296Y000366D01*
X003173Y000366D01*
X003111Y000427D01*
X003479Y000612D02*
X003603Y000612D01*
X003541Y000674D02*
X003541Y000427D01*
X003603Y000366D01*
X003725Y000551D02*
X003972Y000551D01*
X004093Y000612D02*
X004216Y000612D01*
X004155Y000674D02*
X004155Y000427D01*
X004216Y000366D01*
X004339Y000366D02*
X004339Y000736D01*
X004400Y000612D02*
X004524Y000612D01*
X004585Y000551D01*
X004585Y000366D01*
X004707Y000427D02*
X004769Y000366D01*
X004892Y000366D01*
X004954Y000427D01*
X004954Y000551D01*
X004892Y000612D01*
X004769Y000612D01*
X004707Y000551D01*
X004707Y000427D01*
X004400Y000612D02*
X004339Y000551D01*
X005075Y000612D02*
X005075Y000427D01*
X005137Y000366D01*
X005322Y000366D01*
X005322Y000612D01*
X005444Y000551D02*
X005444Y000427D01*
X005505Y000366D01*
X005690Y000366D01*
X005690Y000304D02*
X005690Y000612D01*
X005505Y000612D01*
X005444Y000551D01*
X005812Y000551D02*
X005874Y000612D01*
X005997Y000612D01*
X006059Y000551D01*
X006059Y000366D01*
X006242Y000427D02*
X006304Y000366D01*
X006242Y000427D02*
X006242Y000674D01*
X006180Y000612D02*
X006304Y000612D01*
X006426Y000551D02*
X006487Y000489D01*
X006611Y000489D01*
X006673Y000427D01*
X006611Y000366D01*
X006426Y000366D01*
X006426Y000551D02*
X006487Y000612D01*
X006673Y000612D01*
X006978Y000551D02*
X006978Y000427D01*
X007040Y000366D01*
X007225Y000366D01*
X007346Y000427D02*
X007408Y000366D01*
X007532Y000366D01*
X007593Y000427D01*
X007593Y000551D01*
X007532Y000612D01*
X007408Y000612D01*
X007346Y000551D01*
X007346Y000427D01*
X007225Y000612D02*
X007040Y000612D01*
X006978Y000551D01*
X006856Y000427D02*
X006794Y000427D01*
X006794Y000366D01*
X006856Y000366D01*
X006856Y000427D01*
X007715Y000366D02*
X007715Y000612D01*
X007777Y000612D01*
X007838Y000551D01*
X007900Y000612D01*
X007962Y000551D01*
X007962Y000366D01*
X007838Y000366D02*
X007838Y000551D01*
X005812Y000736D02*
X005812Y000366D01*
X005690Y000304D02*
X005629Y000242D01*
X005567Y000242D01*
X004859Y001716D02*
X004674Y001716D01*
X004674Y002086D01*
X004859Y002086D01*
X004921Y002024D01*
X004921Y001777D01*
X004859Y001716D01*
X004553Y001716D02*
X004553Y002086D01*
X004306Y002086D02*
X004553Y001716D01*
X004306Y001716D02*
X004306Y002086D01*
X004184Y002024D02*
X004123Y002086D01*
X003999Y002086D01*
X003938Y002024D01*
X003938Y001777D01*
X003999Y001716D01*
X004123Y001716D01*
X004184Y001777D01*
X004184Y001901D01*
X004061Y001901D01*
X004061Y002716D02*
X004184Y002839D01*
X004184Y003086D01*
X004306Y003024D02*
X004306Y002777D01*
X004368Y002716D01*
X004491Y002716D01*
X004553Y002777D01*
X004674Y002777D02*
X004736Y002716D01*
X004859Y002716D01*
X004921Y002777D01*
X004674Y002777D02*
X004674Y003024D01*
X004736Y003086D01*
X004859Y003086D01*
X004921Y003024D01*
X004553Y003024D02*
X004491Y003086D01*
X004368Y003086D01*
X004306Y003024D01*
X003938Y003086D02*
X003938Y002839D01*
X004061Y002716D01*
X004392Y003566D02*
X004639Y003566D01*
X004763Y003689D01*
X004639Y003812D01*
X004392Y003812D01*
X004392Y003934D02*
X004701Y003934D01*
X004763Y003996D01*
X004763Y004119D01*
X004701Y004181D01*
X004392Y004181D01*
X007992Y004109D02*
X007992Y004232D01*
X008054Y004294D01*
X008116Y004294D01*
X008177Y004232D01*
X008239Y004294D01*
X008301Y004294D01*
X008363Y004232D01*
X008363Y004109D01*
X008301Y004047D01*
X008239Y003926D02*
X007992Y003926D01*
X008054Y004047D02*
X007992Y004109D01*
X008177Y004171D02*
X008177Y004232D01*
X008239Y003926D02*
X008363Y003802D01*
X008239Y003679D01*
X007992Y003679D01*
X008054Y003557D02*
X008116Y003557D01*
X008177Y003496D01*
X008239Y003557D01*
X008301Y003557D01*
X008363Y003496D01*
X008363Y003372D01*
X008301Y003311D01*
X008177Y003434D02*
X008177Y003496D01*
X008054Y003557D02*
X007992Y003496D01*
X007992Y003372D01*
X008054Y003311D01*
X008172Y002796D02*
X008221Y002699D01*
X008317Y002602D01*
X008317Y002747D01*
X008366Y002796D01*
X008414Y002796D01*
X008463Y002747D01*
X008463Y002651D01*
X008414Y002602D01*
X008317Y002602D01*
X008414Y002503D02*
X008463Y002503D01*
X008463Y002455D01*
X008414Y002455D01*
X008414Y002503D01*
X008414Y002354D02*
X008221Y002354D01*
X008414Y002160D01*
X008463Y002209D01*
X008463Y002305D01*
X008414Y002354D01*
X008221Y002354D02*
X008172Y002305D01*
X008172Y002209D01*
X008221Y002160D01*
X008414Y002160D01*
X008463Y002059D02*
X008366Y001962D01*
X008366Y002011D02*
X008366Y001866D01*
X008463Y001866D02*
X008172Y001866D01*
X008172Y002011D01*
X008221Y002059D01*
X008317Y002059D01*
X008366Y002011D01*
D11*
X007965Y001281D02*
X007735Y001281D01*
X007735Y000821D01*
X007965Y000821D01*
X008042Y000897D01*
X008042Y000974D01*
X007965Y001051D01*
X007735Y001051D01*
X007582Y001051D02*
X007582Y000897D01*
X007505Y000821D01*
X007428Y000821D01*
X007351Y000897D01*
X007351Y000744D01*
X007275Y000667D01*
X006891Y000821D02*
X006891Y001127D01*
X006891Y000974D02*
X007045Y001127D01*
X007121Y001127D01*
X007351Y001051D02*
X007351Y000897D01*
X006738Y000974D02*
X006431Y000974D01*
X006431Y000897D02*
X006431Y001051D01*
X006507Y001127D01*
X006661Y001127D01*
X006738Y001051D01*
X006738Y000974D01*
X006661Y000821D02*
X006507Y000821D01*
X006431Y000897D01*
X006277Y000897D02*
X006277Y001127D01*
X005970Y001127D02*
X005970Y000897D01*
X006047Y000821D01*
X006124Y000897D01*
X006200Y000821D01*
X006277Y000897D01*
X005817Y000897D02*
X005817Y001051D01*
X005740Y001127D01*
X005587Y001127D01*
X005510Y001051D01*
X005510Y000897D01*
X005587Y000821D01*
X005740Y000821D01*
X005817Y000897D01*
X005356Y001051D02*
X005280Y000974D01*
X005050Y000974D01*
X004896Y000974D02*
X004896Y001051D01*
X004819Y001127D01*
X004666Y001127D01*
X004589Y001051D01*
X004589Y000897D01*
X004666Y000821D01*
X004819Y000821D01*
X004896Y000974D02*
X004589Y000974D01*
X004436Y000974D02*
X004436Y001051D01*
X004359Y001127D01*
X004205Y001127D01*
X004129Y001051D01*
X004129Y000897D01*
X004205Y000821D01*
X004359Y000821D01*
X004436Y000974D02*
X004129Y000974D01*
X003975Y000821D02*
X003668Y000821D01*
X003668Y000897D01*
X003975Y001204D01*
X003975Y001281D01*
X003668Y001281D01*
X003438Y001127D02*
X003515Y001051D01*
X003515Y000974D01*
X003208Y000974D01*
X003208Y000897D02*
X003208Y001051D01*
X003285Y001127D01*
X003438Y001127D01*
X003208Y000897D02*
X003285Y000821D01*
X003438Y000821D01*
X003054Y000974D02*
X003054Y001051D01*
X002978Y001127D01*
X002824Y001127D01*
X002748Y001051D01*
X002748Y000897D01*
X002824Y000821D01*
X002978Y000821D01*
X003054Y000974D02*
X002748Y000974D01*
X005050Y000821D02*
X005050Y001281D01*
X005280Y001281D01*
X005356Y001204D01*
X005356Y001051D01*
X007965Y001051D02*
X008042Y001127D01*
X008042Y001204D01*
X007965Y001281D01*
D12*
X007628Y003401D02*
X007128Y003401D01*
X006878Y003651D01*
X006628Y003401D01*
X006128Y003401D01*
X005878Y003651D01*
X005628Y003401D01*
X005128Y003401D01*
X004878Y003651D01*
X004878Y004151D01*
X005128Y004401D01*
X005628Y004401D01*
X005878Y004151D01*
X006128Y004401D01*
X006628Y004401D01*
X006878Y004151D01*
X007128Y004401D01*
X007628Y004401D01*
X007878Y004151D01*
X007878Y003651D01*
X007628Y003401D01*
X006878Y003651D02*
X006878Y004151D01*
X005878Y004151D02*
X005878Y003651D01*
D13*
X003498Y002179D03*
X002957Y002179D03*
D14*
X003228Y002332D03*
D15*
X000657Y001062D02*
X000657Y003739D01*
X001720Y003739D02*
X001810Y003739D01*
X001798Y003267D02*
X001798Y001534D01*
X001810Y001062D02*
X001720Y001062D01*
M02*
