G75*
%MOIN*%
%OFA0B0*%
%FSLAX24Y24*%
%IPPOS*%
%LPD*%
%AMOC8*
5,1,8,0,0,1.08239X$1,22.5*
%
%ADD10OC8,0.0600*%
%ADD11R,0.0591X0.0591*%
%ADD12R,0.0945X0.0630*%
%ADD13R,0.0394X0.0433*%
%ADD14R,0.0551X0.0138*%
%ADD15R,0.0748X0.0709*%
%ADD16R,0.0748X0.0748*%
%ADD17C,0.0100*%
%ADD18C,0.0270*%
%ADD19C,0.0160*%
%ADD20C,0.0240*%
%ADD21C,0.0120*%
D10*
X005378Y001901D03*
X005378Y002901D03*
X005378Y003901D03*
X006378Y003901D03*
X007378Y003901D03*
X007378Y002901D03*
X007378Y001901D03*
D11*
X003228Y001712D03*
X003228Y003090D03*
D12*
X006378Y002841D03*
X006378Y001660D03*
D13*
X003562Y004151D03*
X002893Y004151D03*
D14*
X002271Y002912D03*
X002271Y002656D03*
X002271Y002401D03*
X002271Y002145D03*
X002271Y001889D03*
D15*
X001228Y000826D03*
X001228Y003975D03*
D16*
X001228Y002901D03*
X001228Y001901D03*
D17*
X000778Y000342D02*
X000778Y000301D01*
X007969Y000301D01*
X007972Y000303D01*
X008031Y000301D01*
X008037Y000301D01*
X008117Y000305D01*
X008273Y000362D01*
X008396Y000474D01*
X008466Y000624D01*
X008478Y000706D01*
X008478Y004101D01*
X008469Y004188D01*
X008402Y004351D01*
X008278Y004475D01*
X008115Y004542D01*
X008028Y004551D01*
X000778Y004551D01*
X000778Y004459D01*
X000796Y004469D01*
X000834Y004480D01*
X001178Y004480D01*
X001178Y004025D01*
X001278Y004025D01*
X001752Y004025D01*
X001752Y004349D01*
X001741Y004388D01*
X001722Y004422D01*
X001694Y004450D01*
X001659Y004469D01*
X001621Y004480D01*
X001278Y004480D01*
X001278Y004025D01*
X001278Y003925D01*
X001752Y003925D01*
X001752Y003601D01*
X001741Y003563D01*
X001722Y003529D01*
X001694Y003501D01*
X001659Y003481D01*
X001621Y003471D01*
X001278Y003471D01*
X001278Y003925D01*
X001178Y003925D01*
X001178Y003471D01*
X000834Y003471D01*
X000796Y003481D01*
X000778Y003492D01*
X000778Y003411D01*
X000791Y003425D01*
X001664Y003425D01*
X001752Y003337D01*
X001752Y002464D01*
X001688Y002401D01*
X001752Y002337D01*
X001752Y001464D01*
X001664Y001377D01*
X000791Y001377D01*
X000778Y001390D01*
X000778Y001309D01*
X000796Y001320D01*
X000834Y001330D01*
X001178Y001330D01*
X001178Y000876D01*
X001278Y000876D01*
X001752Y000876D01*
X001752Y001200D01*
X001741Y001238D01*
X001722Y001272D01*
X001694Y001300D01*
X001659Y001320D01*
X001621Y001330D01*
X001278Y001330D01*
X001278Y000876D01*
X001278Y000776D01*
X001752Y000776D01*
X001752Y000452D01*
X001741Y000414D01*
X001722Y000379D01*
X001694Y000351D01*
X001659Y000332D01*
X001621Y000321D01*
X001278Y000321D01*
X001278Y000776D01*
X001178Y000776D01*
X001178Y000321D01*
X000834Y000321D01*
X000796Y000332D01*
X000778Y000342D01*
X001178Y000348D02*
X001278Y000348D01*
X001278Y000446D02*
X001178Y000446D01*
X001178Y000545D02*
X001278Y000545D01*
X001278Y000643D02*
X001178Y000643D01*
X001178Y000742D02*
X001278Y000742D01*
X001278Y000840D02*
X008478Y000840D01*
X008478Y000742D02*
X001752Y000742D01*
X001752Y000643D02*
X008469Y000643D01*
X008429Y000545D02*
X001752Y000545D01*
X001750Y000446D02*
X008365Y000446D01*
X008234Y000348D02*
X001687Y000348D01*
X001752Y000939D02*
X008478Y000939D01*
X008478Y001037D02*
X001752Y001037D01*
X001752Y001136D02*
X008478Y001136D01*
X008478Y001234D02*
X006951Y001234D01*
X006942Y001225D02*
X006970Y001253D01*
X006990Y001287D01*
X007000Y001325D01*
X007000Y001610D01*
X006428Y001610D01*
X006428Y001710D01*
X006932Y001710D01*
X007191Y001451D01*
X007328Y001451D01*
X007328Y001851D01*
X007428Y001851D01*
X007428Y001951D01*
X007328Y001951D01*
X007328Y002351D01*
X007191Y002351D01*
X006938Y002097D01*
X006908Y002115D01*
X006870Y002125D01*
X006428Y002125D01*
X006428Y001710D01*
X006328Y001710D01*
X006328Y002125D01*
X005885Y002125D01*
X005847Y002115D01*
X005817Y002097D01*
X005564Y002351D01*
X005428Y002351D01*
X005428Y001951D01*
X005328Y001951D01*
X005328Y002351D01*
X005191Y002351D01*
X004928Y002087D01*
X004928Y001951D01*
X005328Y001951D01*
X005328Y001851D01*
X004928Y001851D01*
X004928Y001714D01*
X005191Y001451D01*
X005328Y001451D01*
X005328Y001851D01*
X005428Y001851D01*
X005428Y001451D01*
X005564Y001451D01*
X005823Y001710D01*
X006328Y001710D01*
X006328Y001610D01*
X006428Y001610D01*
X006428Y001195D01*
X006870Y001195D01*
X006908Y001205D01*
X006942Y001225D01*
X007000Y001333D02*
X008478Y001333D01*
X008478Y001431D02*
X007000Y001431D01*
X007000Y001530D02*
X007112Y001530D01*
X007014Y001628D02*
X006428Y001628D01*
X006328Y001628D02*
X005741Y001628D01*
X005755Y001610D02*
X005755Y001325D01*
X005765Y001287D01*
X005785Y001253D01*
X005813Y001225D01*
X005847Y001205D01*
X005885Y001195D01*
X006328Y001195D01*
X006328Y001610D01*
X005755Y001610D01*
X005755Y001530D02*
X005643Y001530D01*
X005755Y001431D02*
X003673Y001431D01*
X003673Y001354D02*
X003673Y002069D01*
X003597Y002145D01*
X003673Y002221D01*
X004323Y002221D01*
X004618Y002516D01*
X004634Y002516D01*
X004739Y002559D01*
X004819Y002639D01*
X004863Y002744D01*
X004863Y002857D01*
X004819Y002962D01*
X004739Y003042D01*
X004677Y003068D01*
X004739Y003131D01*
X004971Y003131D01*
X004928Y003087D01*
X004928Y002714D01*
X005191Y002451D01*
X005564Y002451D01*
X005684Y002571D01*
X005755Y002571D01*
X005755Y002464D01*
X005843Y002376D01*
X006912Y002376D01*
X007000Y002464D01*
X007000Y002571D01*
X007071Y002571D01*
X007191Y002451D01*
X007564Y002451D01*
X007828Y002714D01*
X007828Y003087D01*
X007564Y003351D01*
X007191Y003351D01*
X007000Y003159D01*
X007000Y003218D01*
X006912Y003306D01*
X006165Y003306D01*
X006309Y003451D01*
X006564Y003451D01*
X006828Y003714D01*
X006828Y004087D01*
X006564Y004351D01*
X006191Y004351D01*
X005928Y004087D01*
X005928Y003832D01*
X005828Y003732D01*
X005828Y004087D01*
X005564Y004351D01*
X005191Y004351D01*
X004928Y004087D01*
X004928Y003714D01*
X004971Y003671D01*
X004574Y003671D01*
X004475Y003629D01*
X004399Y003553D01*
X004205Y003360D01*
X003673Y003360D01*
X003673Y003447D01*
X003585Y003535D01*
X002870Y003535D01*
X002782Y003447D01*
X002782Y003122D01*
X002617Y003122D01*
X002609Y003131D01*
X001933Y003131D01*
X001845Y003043D01*
X001845Y002014D01*
X001853Y002006D01*
X001845Y001977D01*
X001845Y001889D01*
X002271Y001889D01*
X002696Y001889D01*
X002696Y001977D01*
X002689Y002006D01*
X002696Y002014D01*
X002696Y002702D01*
X002812Y002702D01*
X002870Y002644D01*
X003446Y002644D01*
X003348Y002546D01*
X003143Y002342D01*
X003009Y002207D01*
X003009Y002157D01*
X002870Y002157D01*
X002782Y002069D01*
X002782Y001354D01*
X002870Y001266D01*
X003585Y001266D01*
X003673Y001354D01*
X003651Y001333D02*
X005755Y001333D01*
X005804Y001234D02*
X001742Y001234D01*
X001718Y001431D02*
X002782Y001431D01*
X002782Y001530D02*
X001752Y001530D01*
X001752Y001628D02*
X002782Y001628D01*
X002666Y001728D02*
X002639Y001700D01*
X002604Y001680D01*
X002566Y001670D01*
X002271Y001670D01*
X002271Y001889D01*
X002271Y001889D01*
X002696Y001889D01*
X002696Y001800D01*
X002686Y001762D01*
X002666Y001728D01*
X002665Y001727D02*
X002782Y001727D01*
X002782Y001825D02*
X002696Y001825D01*
X002696Y001924D02*
X002782Y001924D01*
X002782Y002022D02*
X002696Y002022D01*
X002696Y002121D02*
X002834Y002121D01*
X002696Y002219D02*
X003021Y002219D01*
X003119Y002318D02*
X002696Y002318D01*
X002696Y002416D02*
X003218Y002416D01*
X003143Y002342D02*
X003143Y002342D01*
X003316Y002515D02*
X002696Y002515D01*
X002696Y002613D02*
X003415Y002613D01*
X003348Y002546D02*
X003348Y002546D01*
X003671Y002219D02*
X005060Y002219D01*
X005158Y002318D02*
X004420Y002318D01*
X004518Y002416D02*
X005803Y002416D01*
X005755Y002515D02*
X005628Y002515D01*
X005597Y002318D02*
X007158Y002318D01*
X007060Y002219D02*
X005695Y002219D01*
X005794Y002121D02*
X005869Y002121D01*
X005428Y002121D02*
X005328Y002121D01*
X005328Y002219D02*
X005428Y002219D01*
X005428Y002318D02*
X005328Y002318D01*
X005127Y002515D02*
X004617Y002515D01*
X004793Y002613D02*
X005029Y002613D01*
X004930Y002712D02*
X004849Y002712D01*
X004863Y002810D02*
X004928Y002810D01*
X004928Y002909D02*
X004841Y002909D01*
X004774Y003007D02*
X004928Y003007D01*
X004946Y003106D02*
X004714Y003106D01*
X004246Y003401D02*
X003673Y003401D01*
X003620Y003500D02*
X004345Y003500D01*
X004443Y003598D02*
X001751Y003598D01*
X001752Y003697D02*
X004945Y003697D01*
X004928Y003795D02*
X003832Y003795D01*
X003821Y003784D02*
X003908Y003871D01*
X003921Y003866D01*
X004034Y003866D01*
X004139Y003909D01*
X004219Y003989D01*
X004263Y004094D01*
X004263Y004207D01*
X004219Y004312D01*
X004139Y004392D01*
X004034Y004436D01*
X003921Y004436D01*
X003908Y004430D01*
X003821Y004517D01*
X003303Y004517D01*
X003223Y004437D01*
X003210Y004459D01*
X003182Y004487D01*
X003148Y004507D01*
X003110Y004517D01*
X002941Y004517D01*
X002941Y004199D01*
X002844Y004199D01*
X002844Y004102D01*
X002546Y004102D01*
X002546Y003914D01*
X002556Y003876D01*
X002576Y003842D01*
X002604Y003814D01*
X002638Y003794D01*
X002676Y003784D01*
X002844Y003784D01*
X002844Y004102D01*
X002941Y004102D01*
X002941Y003784D01*
X003110Y003784D01*
X003148Y003794D01*
X003182Y003814D01*
X003210Y003842D01*
X003223Y003864D01*
X003303Y003784D01*
X003821Y003784D01*
X004102Y003894D02*
X004928Y003894D01*
X004928Y003992D02*
X004220Y003992D01*
X004261Y004091D02*
X004931Y004091D01*
X005030Y004189D02*
X004263Y004189D01*
X004229Y004288D02*
X005128Y004288D01*
X005627Y004288D02*
X006128Y004288D01*
X006030Y004189D02*
X005725Y004189D01*
X005824Y004091D02*
X005931Y004091D01*
X005928Y003992D02*
X005828Y003992D01*
X005828Y003894D02*
X005928Y003894D01*
X005890Y003795D02*
X005828Y003795D01*
X006260Y003401D02*
X008478Y003401D01*
X008478Y003303D02*
X007612Y003303D01*
X007710Y003204D02*
X008478Y003204D01*
X008478Y003106D02*
X007809Y003106D01*
X007828Y003007D02*
X008478Y003007D01*
X008478Y002909D02*
X007828Y002909D01*
X007828Y002810D02*
X008478Y002810D01*
X008478Y002712D02*
X007825Y002712D01*
X007726Y002613D02*
X008478Y002613D01*
X008478Y002515D02*
X007628Y002515D01*
X007564Y002351D02*
X007428Y002351D01*
X007428Y001951D01*
X007828Y001951D01*
X007828Y002087D01*
X007564Y002351D01*
X007597Y002318D02*
X008478Y002318D01*
X008478Y002416D02*
X006952Y002416D01*
X007000Y002515D02*
X007127Y002515D01*
X007328Y002318D02*
X007428Y002318D01*
X007428Y002219D02*
X007328Y002219D01*
X007328Y002121D02*
X007428Y002121D01*
X007428Y002022D02*
X007328Y002022D01*
X007428Y001924D02*
X008478Y001924D01*
X008478Y002022D02*
X007828Y002022D01*
X007794Y002121D02*
X008478Y002121D01*
X008478Y002219D02*
X007695Y002219D01*
X007828Y001851D02*
X007428Y001851D01*
X007428Y001451D01*
X007564Y001451D01*
X007828Y001714D01*
X007828Y001851D01*
X007828Y001825D02*
X008478Y001825D01*
X008478Y001727D02*
X007828Y001727D01*
X007741Y001628D02*
X008478Y001628D01*
X008478Y001530D02*
X007643Y001530D01*
X007428Y001530D02*
X007328Y001530D01*
X007328Y001628D02*
X007428Y001628D01*
X007428Y001727D02*
X007328Y001727D01*
X007328Y001825D02*
X007428Y001825D01*
X006961Y002121D02*
X006886Y002121D01*
X006428Y002121D02*
X006328Y002121D01*
X006328Y002022D02*
X006428Y002022D01*
X006428Y001924D02*
X006328Y001924D01*
X006328Y001825D02*
X006428Y001825D01*
X006428Y001727D02*
X006328Y001727D01*
X006328Y001530D02*
X006428Y001530D01*
X006428Y001431D02*
X006328Y001431D01*
X006328Y001333D02*
X006428Y001333D01*
X006428Y001234D02*
X006328Y001234D01*
X005428Y001530D02*
X005328Y001530D01*
X005328Y001628D02*
X005428Y001628D01*
X005428Y001727D02*
X005328Y001727D01*
X005328Y001825D02*
X005428Y001825D01*
X005328Y001924D02*
X003673Y001924D01*
X003673Y002022D02*
X004928Y002022D01*
X004961Y002121D02*
X003621Y002121D01*
X003673Y001825D02*
X004928Y001825D01*
X004928Y001727D02*
X003673Y001727D01*
X003673Y001628D02*
X005014Y001628D01*
X005112Y001530D02*
X003673Y001530D01*
X002804Y001333D02*
X000778Y001333D01*
X001178Y001234D02*
X001278Y001234D01*
X001278Y001136D02*
X001178Y001136D01*
X001178Y001037D02*
X001278Y001037D01*
X001278Y000939D02*
X001178Y000939D01*
X001903Y001700D02*
X001937Y001680D01*
X001976Y001670D01*
X002271Y001670D01*
X002271Y001889D01*
X002271Y001889D01*
X002271Y001889D01*
X001845Y001889D01*
X001845Y001800D01*
X001855Y001762D01*
X001875Y001728D01*
X001903Y001700D01*
X001876Y001727D02*
X001752Y001727D01*
X001752Y001825D02*
X001845Y001825D01*
X001845Y001924D02*
X001752Y001924D01*
X001752Y002022D02*
X001845Y002022D01*
X001845Y002121D02*
X001752Y002121D01*
X001752Y002219D02*
X001845Y002219D01*
X001845Y002318D02*
X001752Y002318D01*
X001703Y002416D02*
X001845Y002416D01*
X001845Y002515D02*
X001752Y002515D01*
X001752Y002613D02*
X001845Y002613D01*
X001845Y002712D02*
X001752Y002712D01*
X001752Y002810D02*
X001845Y002810D01*
X001845Y002909D02*
X001752Y002909D01*
X001752Y003007D02*
X001845Y003007D01*
X001907Y003106D02*
X001752Y003106D01*
X001752Y003204D02*
X002782Y003204D01*
X002782Y003303D02*
X001752Y003303D01*
X001687Y003401D02*
X002782Y003401D01*
X002835Y003500D02*
X001691Y003500D01*
X001278Y003500D02*
X001178Y003500D01*
X001178Y003598D02*
X001278Y003598D01*
X001278Y003697D02*
X001178Y003697D01*
X001178Y003795D02*
X001278Y003795D01*
X001278Y003894D02*
X001178Y003894D01*
X001278Y003992D02*
X002546Y003992D01*
X002546Y004091D02*
X001752Y004091D01*
X001752Y004189D02*
X002844Y004189D01*
X002844Y004199D02*
X002546Y004199D01*
X002546Y004387D01*
X002556Y004425D01*
X002576Y004459D01*
X002604Y004487D01*
X002638Y004507D01*
X002676Y004517D01*
X002844Y004517D01*
X002844Y004199D01*
X002844Y004288D02*
X002941Y004288D01*
X002941Y004386D02*
X002844Y004386D01*
X002844Y004485D02*
X002941Y004485D01*
X003184Y004485D02*
X003271Y004485D01*
X003854Y004485D02*
X008254Y004485D01*
X008366Y004386D02*
X004145Y004386D01*
X003292Y003795D02*
X003149Y003795D01*
X002941Y003795D02*
X002844Y003795D01*
X002844Y003894D02*
X002941Y003894D01*
X002941Y003992D02*
X002844Y003992D01*
X002844Y004091D02*
X002941Y004091D01*
X002552Y003894D02*
X001752Y003894D01*
X001752Y003795D02*
X002637Y003795D01*
X002546Y004288D02*
X001752Y004288D01*
X001742Y004386D02*
X002546Y004386D01*
X002601Y004485D02*
X000778Y004485D01*
X001178Y004386D02*
X001278Y004386D01*
X001278Y004288D02*
X001178Y004288D01*
X001178Y004189D02*
X001278Y004189D01*
X001278Y004091D02*
X001178Y004091D01*
X002271Y001825D02*
X002271Y001825D01*
X002271Y001727D02*
X002271Y001727D01*
X005328Y002022D02*
X005428Y002022D01*
X007000Y003204D02*
X007045Y003204D01*
X007143Y003303D02*
X006916Y003303D01*
X007191Y003451D02*
X007564Y003451D01*
X007828Y003714D01*
X007828Y004087D01*
X007564Y004351D01*
X007191Y004351D01*
X006928Y004087D01*
X006928Y003714D01*
X007191Y003451D01*
X007142Y003500D02*
X006613Y003500D01*
X006711Y003598D02*
X007044Y003598D01*
X006945Y003697D02*
X006810Y003697D01*
X006828Y003795D02*
X006928Y003795D01*
X006928Y003894D02*
X006828Y003894D01*
X006828Y003992D02*
X006928Y003992D01*
X006931Y004091D02*
X006824Y004091D01*
X006725Y004189D02*
X007030Y004189D01*
X007128Y004288D02*
X006627Y004288D01*
X007627Y004288D02*
X008428Y004288D01*
X008469Y004189D02*
X007725Y004189D01*
X007824Y004091D02*
X008478Y004091D01*
X008478Y003992D02*
X007828Y003992D01*
X007828Y003894D02*
X008478Y003894D01*
X008478Y003795D02*
X007828Y003795D01*
X007810Y003697D02*
X008478Y003697D01*
X008478Y003598D02*
X007711Y003598D01*
X007613Y003500D02*
X008478Y003500D01*
D18*
X004578Y002801D03*
X004178Y003601D03*
X003978Y004151D03*
X007478Y000851D03*
X003928Y000751D03*
D19*
X003239Y001701D02*
X003239Y002112D01*
X003578Y002451D01*
X004228Y002451D01*
X004578Y002801D01*
X005128Y003401D02*
X005628Y003401D01*
X003978Y004151D02*
X003562Y004151D01*
X003228Y003090D02*
X003050Y002912D01*
X003228Y001712D02*
X003239Y001701D01*
D20*
X005378Y002901D02*
X005468Y002841D01*
X006378Y002841D01*
X007337Y002841D01*
X007378Y002901D01*
X006378Y003901D02*
X005878Y003401D01*
X005628Y003401D01*
X005128Y003401D02*
X004628Y003401D01*
X004317Y003090D01*
X003228Y003090D01*
D21*
X003050Y002912D02*
X002271Y002912D01*
M02*
