G75*
%MOIN*%
%OFA0B0*%
%FSLAX24Y24*%
%IPPOS*%
%LPD*%
%AMOC8*
5,1,8,0,0,1.08239X$1,22.5*
%
%ADD10C,0.0030*%
%ADD11C,0.0040*%
%ADD12C,0.0060*%
%ADD13R,0.0128X0.0167*%
%ADD14R,0.0138X0.0138*%
%ADD15C,0.0080*%
D10*
X002593Y000366D02*
X002778Y000366D01*
X002839Y000427D01*
X002839Y000551D01*
X002778Y000612D01*
X002593Y000612D01*
X002593Y000736D02*
X002593Y000366D01*
X002961Y000427D02*
X002961Y000551D01*
X003023Y000612D01*
X003146Y000612D01*
X003208Y000551D01*
X003208Y000427D01*
X003146Y000366D01*
X003023Y000366D01*
X002961Y000427D01*
X003329Y000612D02*
X003453Y000612D01*
X003391Y000674D02*
X003391Y000427D01*
X003453Y000366D01*
X003575Y000551D02*
X003822Y000551D01*
X003943Y000612D02*
X004066Y000612D01*
X004005Y000674D02*
X004005Y000427D01*
X004066Y000366D01*
X004189Y000366D02*
X004189Y000736D01*
X004250Y000612D02*
X004374Y000612D01*
X004435Y000551D01*
X004435Y000366D01*
X004557Y000427D02*
X004619Y000366D01*
X004742Y000366D01*
X004804Y000427D01*
X004804Y000551D01*
X004742Y000612D01*
X004619Y000612D01*
X004557Y000551D01*
X004557Y000427D01*
X004250Y000612D02*
X004189Y000551D01*
X004925Y000612D02*
X004925Y000427D01*
X004987Y000366D01*
X005172Y000366D01*
X005172Y000612D01*
X005294Y000551D02*
X005294Y000427D01*
X005355Y000366D01*
X005540Y000366D01*
X005540Y000304D02*
X005540Y000612D01*
X005355Y000612D01*
X005294Y000551D01*
X005662Y000551D02*
X005724Y000612D01*
X005847Y000612D01*
X005909Y000551D01*
X005909Y000366D01*
X006092Y000427D02*
X006154Y000366D01*
X006092Y000427D02*
X006092Y000674D01*
X006030Y000612D02*
X006154Y000612D01*
X006276Y000551D02*
X006337Y000612D01*
X006523Y000612D01*
X006461Y000489D02*
X006337Y000489D01*
X006276Y000551D01*
X006461Y000489D02*
X006523Y000427D01*
X006461Y000366D01*
X006276Y000366D01*
X006644Y000366D02*
X006706Y000366D01*
X006706Y000427D01*
X006644Y000427D01*
X006644Y000366D01*
X006828Y000427D02*
X006890Y000366D01*
X007075Y000366D01*
X007196Y000427D02*
X007258Y000366D01*
X007382Y000366D01*
X007443Y000427D01*
X007443Y000551D01*
X007382Y000612D01*
X007258Y000612D01*
X007196Y000551D01*
X007196Y000427D01*
X007075Y000612D02*
X006890Y000612D01*
X006828Y000551D01*
X006828Y000427D01*
X007565Y000366D02*
X007565Y000612D01*
X007627Y000612D01*
X007688Y000551D01*
X007750Y000612D01*
X007812Y000551D01*
X007812Y000366D01*
X007688Y000366D02*
X007688Y000551D01*
X005662Y000736D02*
X005662Y000366D01*
X005540Y000304D02*
X005479Y000242D01*
X005417Y000242D01*
X004859Y001716D02*
X004674Y001716D01*
X004674Y002086D01*
X004859Y002086D01*
X004921Y002024D01*
X004921Y001777D01*
X004859Y001716D01*
X004553Y001716D02*
X004553Y002086D01*
X004306Y002086D02*
X004553Y001716D01*
X004306Y001716D02*
X004306Y002086D01*
X004184Y002024D02*
X004123Y002086D01*
X003999Y002086D01*
X003938Y002024D01*
X003938Y001777D01*
X003999Y001716D01*
X004123Y001716D01*
X004184Y001777D01*
X004184Y001901D01*
X004061Y001901D01*
X004061Y002716D02*
X004184Y002839D01*
X004184Y003086D01*
X004306Y003024D02*
X004306Y002777D01*
X004368Y002716D01*
X004491Y002716D01*
X004553Y002777D01*
X004674Y002777D02*
X004736Y002716D01*
X004859Y002716D01*
X004921Y002777D01*
X004674Y002777D02*
X004674Y003024D01*
X004736Y003086D01*
X004859Y003086D01*
X004921Y003024D01*
X004553Y003024D02*
X004491Y003086D01*
X004368Y003086D01*
X004306Y003024D01*
X003938Y003086D02*
X003938Y002839D01*
X004061Y002716D01*
X004392Y003566D02*
X004639Y003566D01*
X004763Y003689D01*
X004639Y003812D01*
X004392Y003812D01*
X004392Y003934D02*
X004701Y003934D01*
X004763Y003996D01*
X004763Y004119D01*
X004701Y004181D01*
X004392Y004181D01*
X007992Y004109D02*
X007992Y004232D01*
X008054Y004294D01*
X008116Y004294D01*
X008177Y004232D01*
X008239Y004294D01*
X008301Y004294D01*
X008363Y004232D01*
X008363Y004109D01*
X008301Y004047D01*
X008239Y003926D02*
X007992Y003926D01*
X008054Y004047D02*
X007992Y004109D01*
X008177Y004171D02*
X008177Y004232D01*
X008239Y003926D02*
X008363Y003802D01*
X008239Y003679D01*
X007992Y003679D01*
X008054Y003557D02*
X008116Y003557D01*
X008177Y003496D01*
X008239Y003557D01*
X008301Y003557D01*
X008363Y003496D01*
X008363Y003372D01*
X008301Y003311D01*
X008177Y003434D02*
X008177Y003496D01*
X008054Y003557D02*
X007992Y003496D01*
X007992Y003372D01*
X008054Y003311D01*
X008172Y002796D02*
X008172Y002602D01*
X008317Y002602D01*
X008269Y002699D01*
X008269Y002747D01*
X008317Y002796D01*
X008414Y002796D01*
X008463Y002747D01*
X008463Y002651D01*
X008414Y002602D01*
X008414Y002503D02*
X008463Y002503D01*
X008463Y002455D01*
X008414Y002455D01*
X008414Y002503D01*
X008414Y002354D02*
X008221Y002354D01*
X008414Y002160D01*
X008463Y002209D01*
X008463Y002305D01*
X008414Y002354D01*
X008221Y002354D02*
X008172Y002305D01*
X008172Y002209D01*
X008221Y002160D01*
X008414Y002160D01*
X008463Y002059D02*
X008366Y001962D01*
X008366Y002011D02*
X008366Y001866D01*
X008463Y001866D02*
X008172Y001866D01*
X008172Y002011D01*
X008221Y002059D01*
X008317Y002059D01*
X008366Y002011D01*
D11*
X008388Y001331D02*
X008158Y001331D01*
X008158Y000871D01*
X008388Y000871D01*
X008465Y000947D01*
X008465Y001024D01*
X008388Y001101D01*
X008158Y001101D01*
X008004Y001101D02*
X008004Y000947D01*
X007928Y000871D01*
X007851Y000871D01*
X007774Y000947D01*
X007774Y000794D01*
X007698Y000717D01*
X007774Y000947D02*
X007774Y001101D01*
X007432Y001127D02*
X007355Y001127D01*
X007201Y000974D01*
X007048Y000974D02*
X007048Y001051D01*
X006971Y001127D01*
X006818Y001127D01*
X006741Y001051D01*
X006741Y000897D01*
X006818Y000821D01*
X006971Y000821D01*
X007048Y000974D02*
X006741Y000974D01*
X006588Y000897D02*
X006588Y001127D01*
X006281Y001127D02*
X006281Y000897D01*
X006357Y000821D01*
X006434Y000897D01*
X006511Y000821D01*
X006588Y000897D01*
X006127Y000897D02*
X006127Y001051D01*
X006050Y001127D01*
X005897Y001127D01*
X005820Y001051D01*
X005820Y000897D01*
X005897Y000821D01*
X006050Y000821D01*
X006127Y000897D01*
X005667Y001051D02*
X005667Y001204D01*
X005590Y001281D01*
X005360Y001281D01*
X005360Y000821D01*
X005360Y000974D02*
X005590Y000974D01*
X005667Y001051D01*
X004746Y001051D02*
X004746Y000974D01*
X004439Y000974D01*
X004439Y000897D02*
X004439Y001051D01*
X004516Y001127D01*
X004669Y001127D01*
X004746Y001051D01*
X004516Y000821D02*
X004439Y000897D01*
X004516Y000821D02*
X004669Y000821D01*
X004286Y000974D02*
X003979Y000974D01*
X003979Y000897D02*
X003979Y001051D01*
X004055Y001127D01*
X004209Y001127D01*
X004286Y001051D01*
X004286Y000974D01*
X004209Y000821D02*
X004055Y000821D01*
X003979Y000897D01*
X003825Y000821D02*
X003518Y000821D01*
X003518Y000897D01*
X003825Y001204D01*
X003825Y001281D01*
X003518Y001281D01*
X003288Y001127D02*
X003365Y001051D01*
X003365Y000974D01*
X003058Y000974D01*
X003058Y000897D02*
X003058Y001051D01*
X003135Y001127D01*
X003288Y001127D01*
X003058Y000897D02*
X003135Y000821D01*
X003288Y000821D01*
X002904Y000974D02*
X002904Y001051D01*
X002828Y001127D01*
X002674Y001127D01*
X002598Y001051D01*
X002598Y000897D01*
X002674Y000821D01*
X002828Y000821D01*
X002904Y000974D02*
X002598Y000974D01*
X007201Y000821D02*
X007201Y001127D01*
X008388Y001101D02*
X008465Y001177D01*
X008465Y001254D01*
X008388Y001331D01*
D12*
X007628Y003401D02*
X007128Y003401D01*
X006878Y003651D01*
X006628Y003401D01*
X006128Y003401D01*
X005878Y003651D01*
X005628Y003401D01*
X005128Y003401D01*
X004878Y003651D01*
X004878Y004151D01*
X005128Y004401D01*
X005628Y004401D01*
X005878Y004151D01*
X006128Y004401D01*
X006628Y004401D01*
X006878Y004151D01*
X007128Y004401D01*
X007628Y004401D01*
X007878Y004151D01*
X007878Y003651D01*
X007628Y003401D01*
X006878Y003651D02*
X006878Y004151D01*
X005878Y004151D02*
X005878Y003651D01*
D13*
X003498Y002179D03*
X002957Y002179D03*
D14*
X003228Y002332D03*
D15*
X000657Y001062D02*
X000657Y003739D01*
X001720Y003739D02*
X002350Y003739D01*
X002350Y003267D01*
X001798Y003267D01*
X001798Y001534D01*
X002350Y001534D01*
X002350Y001062D01*
X001720Y001062D01*
M02*
